{"glyphs":{"0":{"ha":972,"x_min":60,"x_max":913,"o":"m 60 479 q 170 860 60 733 q 488 986 281 986 q 913 482 913 986 q 802 101 913 228 q 485 -25 692 -25 q 60 479 60 -25 m 260 479 q 316 218 260 299 q 486 138 372 138 q 657 218 601 138 q 713 482 713 299 q 657 744 713 664 q 486 824 601 824 q 315 743 371 824 q 260 479 260 663 z "},"1":{"ha":972,"x_min":151,"x_max":669,"o":"m 471 744 l 238 601 l 151 740 l 499 960 l 669 960 l 669 0 l 471 0 l 471 744 z "},"2":{"ha":972,"x_min":85,"x_max":890,"o":"m 90 147 q 269 274 193 219 q 414 379 346 328 q 545 479 494 438 q 624 553 596 521 q 662 615 651 586 q 672 678 672 644 q 624 789 672 751 q 482 826 575 826 q 344 792 393 826 q 272 678 296 757 l 85 700 q 217 913 114 840 q 490 986 321 986 q 771 910 671 986 q 871 694 871 833 q 847 571 871 626 q 765 457 824 515 q 603 322 707 399 q 499 247 550 283 q 375 161 447 210 l 890 161 l 867 0 l 90 0 l 90 147 z "},"3":{"ha":972,"x_min":72,"x_max":896,"o":"m 700 279 q 492 419 700 419 l 367 419 l 367 572 l 494 572 q 630 607 582 572 q 678 706 678 642 q 482 831 678 831 q 343 799 393 831 q 268 690 293 768 l 85 713 q 216 919 110 851 q 490 986 322 986 q 767 917 667 986 q 868 731 868 847 q 828 601 868 658 q 701 511 789 544 q 848 417 800 476 q 896 275 896 357 q 790 56 896 136 q 488 -25 685 -25 q 258 15 349 -25 q 122 126 167 56 q 72 289 76 197 l 260 289 q 325 169 272 207 q 485 131 378 131 q 645 169 590 131 q 700 279 700 207 z "},"4":{"ha":972,"x_min":39,"x_max":936,"o":"m 601 211 l 39 211 l 39 356 l 590 960 l 781 960 l 781 357 l 936 357 l 914 211 l 781 211 l 781 0 l 601 0 l 601 211 m 601 758 l 235 357 l 601 357 l 601 758 z "},"5":{"ha":972,"x_min":99,"x_max":897,"o":"m 703 310 q 497 479 703 479 q 381 464 428 479 q 294 413 335 449 l 125 413 l 171 960 l 826 960 l 826 801 l 329 801 l 308 574 q 414 613 363 601 q 542 624 465 624 q 803 540 710 624 q 897 310 897 457 q 795 63 897 150 q 504 -25 693 -25 q 99 260 135 -25 l 289 260 q 357 160 308 190 q 501 131 406 131 q 703 310 703 131 z "},"6":{"ha":972,"x_min":83,"x_max":899,"o":"m 83 428 q 199 844 83 701 q 522 986 315 986 q 756 924 667 986 q 872 746 846 861 l 694 724 q 629 802 672 775 q 517 829 586 829 q 343 757 400 829 q 275 564 286 685 l 271 519 q 536 618 363 618 q 801 538 703 618 q 899 306 899 457 q 848 130 899 204 q 707 15 797 56 q 496 -25 617 -25 q 191 90 299 -25 q 83 428 83 206 m 286 314 q 344 181 286 233 q 496 129 403 129 q 651 176 593 129 q 710 304 710 224 q 657 432 710 388 q 500 476 604 476 q 347 433 407 476 q 286 314 286 389 z "},"7":{"ha":972,"x_min":65,"x_max":869,"o":"m 65 960 l 869 960 l 869 814 q 637 422 735 621 q 464 0 539 224 l 257 0 q 426 410 331 217 q 651 794 522 603 l 65 794 l 65 960 z "},"8":{"ha":972,"x_min":54,"x_max":918,"o":"m 54 256 q 106 403 54 340 q 253 494 157 465 q 132 582 174 525 q 90 714 90 639 q 197 913 90 840 q 489 986 304 986 q 778 915 675 986 q 882 715 882 843 q 840 582 882 639 q 721 494 797 525 q 866 406 814 467 q 918 261 918 344 q 806 49 918 124 q 485 -25 694 -25 q 165 47 275 -25 q 54 256 54 119 m 244 272 q 307 165 244 201 q 488 128 369 128 q 666 165 604 128 q 728 272 728 203 q 488 415 728 415 q 244 272 244 415 m 272 700 q 486 563 272 563 q 700 700 700 563 q 644 799 700 764 q 486 835 588 835 q 328 799 385 835 q 272 700 272 764 z "},"9":{"ha":972,"x_min":74,"x_max":889,"o":"m 74 656 q 124 831 74 757 q 266 945 175 904 q 476 986 357 986 q 783 865 678 986 q 889 507 889 744 q 845 230 889 350 q 710 42 801 110 q 475 -25 618 -25 q 206 42 303 -25 q 93 235 108 108 l 281 235 q 344 157 297 182 q 476 132 390 132 q 639 210 585 132 q 700 442 693 288 q 589 367 656 392 q 436 343 522 343 q 171 424 268 343 q 74 656 74 504 m 263 656 q 315 528 263 572 q 472 483 368 483 q 626 528 567 483 q 685 647 685 572 q 627 781 685 729 q 476 832 569 832 q 321 784 379 832 q 263 656 263 736 z "},"―":{"ha":694,"x_min":69,"x_max":625,"o":"m 69 1042 l 625 1042 l 625 0 l 69 0 l 69 1042 m 556 972 l 139 972 l 139 69 l 556 69 l 556 972 z "},"‖":{"ha":694,"x_min":69,"x_max":625,"o":"m 69 1042 l 625 1042 l 625 0 l 69 0 l 69 1042 m 556 972 l 139 972 l 139 69 l 556 69 l 556 972 z "},"‗":{"ha":694,"x_min":69,"x_max":625,"o":"m 69 1042 l 625 1042 l 625 0 l 69 0 l 69 1042 m 556 972 l 139 972 l 139 69 l 556 69 l 556 972 z "},"‚":{"ha":694,"x_min":69,"x_max":625,"o":"m 69 1042 l 625 1042 l 625 0 l 69 0 l 69 1042 m 556 972 l 139 972 l 139 69 l 556 69 l 556 972 z "},"‛":{"ha":694,"x_min":69,"x_max":625,"o":"m 69 1042 l 625 1042 l 625 0 l 69 0 l 69 1042 m 556 972 l 139 972 l 139 69 l 556 69 l 556 972 z "},"‟":{"ha":694,"x_min":69,"x_max":625,"o":"m 69 1042 l 625 1042 l 625 0 l 69 0 l 69 1042 m 556 972 l 139 972 l 139 69 l 556 69 l 556 972 z "},"†":{"ha":694,"x_min":69,"x_max":625,"o":"m 69 1042 l 625 1042 l 625 0 l 69 0 l 69 1042 m 556 972 l 139 972 l 139 69 l 556 69 l 556 972 z "},"‡":{"ha":694,"x_min":69,"x_max":625,"o":"m 69 1042 l 625 1042 l 625 0 l 69 0 l 69 1042 m 556 972 l 139 972 l 139 69 l 556 69 l 556 972 z "},"‣":{"ha":694,"x_min":69,"x_max":625,"o":"m 69 1042 l 625 1042 l 625 0 l 69 0 l 69 1042 m 556 972 l 139 972 l 139 69 l 556 69 l 556 972 z "},"․":{"ha":694,"x_min":69,"x_max":625,"o":"m 69 1042 l 625 1042 l 625 0 l 69 0 l 69 1042 m 556 972 l 139 972 l 139 69 l 556 69 l 556 972 z "},"‥":{"ha":694,"x_min":69,"x_max":625,"o":"m 69 1042 l 625 1042 l 625 0 l 69 0 l 69 1042 m 556 972 l 139 972 l 139 69 l 556 69 l 556 972 z "}," ":{"ha":383,"x_min":0,"x_max":0,"o":""},"!":{"ha":418,"x_min":106,"x_max":314,"o":"m 106 992 l 314 992 l 300 296 l 118 296 l 106 992 m 110 194 l 308 194 l 308 0 l 110 0 l 110 194 z "},"\"":{"ha":588,"x_min":63,"x_max":524,"o":"m 63 992 l 239 992 l 231 622 l 71 622 l 63 992 m 347 992 l 524 992 l 515 622 l 356 622 l 347 992 z "},"#":{"ha":972,"x_min":22,"x_max":950,"o":"m 22 363 l 181 363 l 219 597 l 82 597 l 82 738 l 243 738 l 281 960 l 443 960 l 406 738 l 653 738 l 690 960 l 853 960 l 815 738 l 950 738 l 950 597 l 792 597 l 753 363 l 890 363 l 890 222 l 729 222 l 692 0 l 529 0 l 567 222 l 319 222 l 282 0 l 119 0 l 157 222 l 22 222 l 22 363 m 629 597 l 382 597 l 343 363 l 590 363 l 629 597 z "},"$":{"ha":972,"x_min":47,"x_max":924,"o":"m 443 -22 q 163 66 265 -11 q 47 288 61 143 l 232 288 q 443 121 256 142 l 443 414 q 163 512 249 436 q 76 703 76 588 q 173 902 76 826 q 443 986 269 978 l 443 1110 l 543 1110 l 543 986 q 792 910 699 976 q 908 714 885 843 l 732 692 q 667 797 711 760 q 543 843 624 833 l 543 568 q 835 468 747 546 q 924 267 924 390 q 874 111 924 174 q 740 15 825 49 q 543 -22 654 -18 l 543 -161 l 443 -161 l 443 -22 m 735 258 q 693 359 735 322 q 563 403 651 396 l 543 404 l 543 119 q 680 156 625 125 q 735 258 735 188 m 443 844 q 312 812 365 840 q 258 715 258 783 q 299 624 258 658 q 443 578 339 589 l 443 844 z "},"%":{"ha":1571,"x_min":57,"x_max":1514,"o":"m 588 0 l 407 0 l 983 960 l 1163 960 l 588 0 m 944 281 q 1022 501 944 419 q 1231 582 1099 582 q 1439 502 1364 582 q 1514 282 1514 422 q 1437 63 1514 143 q 1228 -18 1360 -18 q 1019 62 1094 -18 q 944 281 944 142 m 1096 282 q 1229 100 1096 100 q 1363 282 1363 100 q 1229 464 1363 464 q 1096 282 1096 464 m 57 676 q 134 897 57 815 q 343 978 211 978 q 551 898 476 978 q 626 678 626 818 q 549 458 626 539 q 340 378 472 378 q 132 458 207 378 q 57 676 57 538 m 208 678 q 342 496 208 496 q 475 678 475 496 q 342 860 475 860 q 208 678 208 860 z "},"&":{"ha":1110,"x_min":44,"x_max":1118,"o":"m 44 267 q 294 554 44 442 q 208 670 233 618 q 182 772 182 722 q 221 892 182 840 q 329 972 260 943 q 489 1001 399 1001 q 702 943 622 1001 q 782 786 782 885 q 731 644 782 706 q 557 521 679 583 l 814 282 q 853 372 839 322 q 869 482 868 422 l 1038 482 q 1008 313 1036 390 q 931 174 979 235 l 1118 0 l 886 0 l 813 68 q 475 -22 669 -22 q 156 52 267 -22 q 44 267 44 126 m 238 282 q 302 161 238 203 q 490 119 367 119 q 600 133 546 119 q 700 174 654 146 l 399 454 q 275 370 313 411 q 238 282 238 329 m 357 768 q 380 697 357 729 q 460 611 403 664 q 581 688 546 653 q 615 768 615 724 q 582 841 615 814 q 492 868 549 868 q 392 842 428 868 q 357 768 357 817 z "},"'":{"ha":301,"x_min":63,"x_max":239,"o":"m 63 992 l 239 992 l 231 622 l 71 622 l 63 992 z "},"(":{"ha":494,"x_min":75,"x_max":467,"o":"m 75 424 q 128 748 75 599 q 281 1019 181 897 l 467 1019 q 324 735 368 876 q 281 424 281 593 q 324 114 281 256 q 467 -172 368 -28 l 281 -172 q 128 100 181 -49 q 75 424 75 249 z "},")":{"ha":494,"x_min":28,"x_max":418,"o":"m 214 424 q 170 735 214 593 q 28 1019 126 876 l 214 1019 q 366 748 314 897 q 418 424 418 599 q 366 100 418 249 q 214 -172 314 -49 l 28 -172 q 170 114 126 -28 q 214 424 214 256 z "},"*":{"ha":661,"x_min":42,"x_max":619,"o":"m 390 790 l 557 882 l 619 729 l 421 678 l 574 524 l 440 425 l 331 601 l 221 425 l 88 524 l 239 678 l 42 729 l 103 882 l 271 790 l 244 992 l 415 992 l 390 790 z "},"+":{"ha":972,"x_min":99,"x_max":874,"o":"m 399 392 l 99 392 l 99 553 l 399 553 l 399 857 l 574 857 l 574 553 l 874 553 l 874 392 l 574 392 l 574 89 l 399 89 l 399 392 z "},",":{"ha":401,"x_min":58,"x_max":317,"o":"m 115 211 l 317 211 l 217 -137 l 58 -137 l 115 211 z "},"-":{"ha":667,"x_min":67,"x_max":601,"o":"m 67 497 l 601 497 l 601 324 l 67 324 l 67 497 z "},".":{"ha":401,"x_min":101,"x_max":300,"o":"m 101 211 l 300 211 l 300 0 l 101 0 l 101 211 z "},"/":{"ha":604,"x_min":10,"x_max":593,"o":"m 201 0 l 10 0 l 403 1019 l 593 1019 l 201 0 z "},":":{"ha":401,"x_min":101,"x_max":300,"o":"m 101 211 l 300 211 l 300 0 l 101 0 l 101 211 m 101 724 l 300 724 l 300 513 l 101 513 l 101 724 z "},";":{"ha":401,"x_min":58,"x_max":317,"o":"m 115 211 l 317 211 l 217 -137 l 58 -137 l 115 211 m 113 724 l 311 724 l 311 513 l 113 513 l 113 724 z "},"<":{"ha":972,"x_min":111,"x_max":839,"o":"m 111 547 l 839 851 l 839 682 l 324 475 l 839 267 l 839 93 l 111 397 l 111 547 z "},"=":{"ha":972,"x_min":122,"x_max":850,"o":"m 122 390 l 850 390 l 850 231 l 122 231 l 122 390 m 122 715 l 850 715 l 850 557 l 122 557 l 122 715 z "},">":{"ha":972,"x_min":133,"x_max":861,"o":"m 133 263 l 649 469 l 133 678 l 133 851 l 861 547 l 861 397 l 133 93 l 133 263 z "},"?":{"ha":892,"x_min":38,"x_max":821,"o":"m 340 317 q 354 403 340 365 q 403 476 368 440 q 497 557 438 513 q 575 622 549 596 q 612 670 601 647 q 622 721 622 693 q 576 817 622 783 q 442 850 529 850 q 293 817 346 850 q 218 707 240 783 l 38 726 q 449 1008 92 1008 q 723 940 625 1008 q 821 750 821 872 q 784 615 821 672 q 656 489 747 557 q 573 422 601 450 q 533 370 544 394 q 522 314 522 346 l 522 296 l 340 296 l 340 317 m 332 194 l 529 194 l 529 0 l 332 0 l 332 194 z "},"@":{"ha":1592,"x_min":69,"x_max":1524,"o":"m 69 257 q 127 536 69 408 q 290 758 185 664 q 538 903 396 851 q 851 954 681 954 q 1208 888 1057 954 q 1441 702 1358 822 q 1524 418 1524 582 q 1477 194 1524 292 q 1347 41 1431 96 q 1156 -14 1264 -14 q 1022 13 1069 -14 q 958 100 974 40 q 950 117 954 108 q 697 -14 863 -14 q 501 59 574 -14 q 428 261 428 132 q 475 457 428 371 q 603 594 522 543 q 786 644 685 644 q 992 543 938 644 l 1008 631 l 1175 631 l 1097 214 q 1092 169 1092 185 q 1172 103 1092 103 q 1279 142 1233 103 q 1351 250 1325 181 q 1378 410 1378 319 q 1315 634 1378 540 q 1135 778 1253 728 q 850 829 1017 829 q 596 788 711 829 q 397 672 481 747 q 268 493 314 596 q 222 265 222 390 q 358 -62 222 54 q 756 -179 494 -179 q 959 -155 875 -179 q 1115 -75 1043 -131 l 1314 -75 q 1085 -244 1233 -185 q 735 -304 936 -304 q 378 -237 526 -304 q 149 -44 229 -169 q 69 257 69 82 m 604 272 q 640 158 604 196 q 739 121 675 121 q 869 164 817 121 q 935 282 922 207 l 946 349 q 919 467 960 424 q 806 510 878 510 q 700 478 746 510 q 629 393 654 447 q 604 272 604 339 z "},"A":{"ha":1186,"x_min":19,"x_max":1167,"o":"m 232 0 l 19 0 l 478 992 l 707 992 l 1167 0 l 947 0 l 842 235 l 335 235 l 232 0 m 590 817 l 403 394 l 776 394 l 590 817 z "},"B":{"ha":1111,"x_min":125,"x_max":1040,"o":"m 125 992 l 599 992 q 1001 736 1001 992 q 842 525 1001 581 q 1040 289 1040 460 q 933 74 1040 147 q 621 0 826 0 l 125 0 l 125 992 m 838 296 q 608 443 838 443 l 318 443 l 318 151 l 606 151 q 783 185 729 151 q 838 296 838 219 m 801 718 q 751 812 801 783 q 589 840 700 840 l 318 840 l 318 589 l 601 589 q 753 620 704 589 q 801 718 801 651 z "},"":{"ha":1111,"x_min":125,"x_max":1040,"o":"m 125 992 l 599 992 q 1001 736 1001 992 q 842 525 1001 581 q 1040 289 1040 460 q 933 74 1040 147 q 621 0 826 0 l 125 0 l 125 992 m 838 296 q 608 443 838 443 l 318 443 l 318 151 l 606 151 q 783 185 729 151 q 838 296 838 219 m 801 718 q 751 812 801 783 q 589 840 700 840 l 318 840 l 318 589 l 601 589 q 753 620 704 589 q 801 718 801 651 z "},"C":{"ha":1199,"x_min":75,"x_max":1138,"o":"m 75 496 q 140 766 75 649 q 329 950 206 883 q 625 1017 453 1017 q 1121 679 1032 1017 l 918 654 q 814 800 883 756 q 624 844 744 844 q 378 752 468 844 q 289 496 289 660 q 379 240 289 332 q 629 147 469 147 q 833 195 760 147 q 931 344 907 243 l 1138 344 q 981 71 1114 167 q 626 -25 847 -25 q 328 40 451 -25 q 140 223 206 106 q 75 496 75 340 z "},"D":{"ha":1218,"x_min":125,"x_max":1143,"o":"m 125 992 l 565 992 q 995 865 847 992 q 1143 496 1143 738 q 986 129 1143 258 q 539 0 829 0 l 125 0 l 125 992 m 932 497 q 567 822 932 822 l 328 822 l 328 169 l 544 169 q 932 497 932 169 z "},"E":{"ha":1040,"x_min":125,"x_max":978,"o":"m 125 992 l 947 992 l 947 831 l 328 831 l 328 589 l 917 589 l 917 428 l 328 428 l 328 161 l 978 161 l 953 0 l 125 0 l 125 992 z "},"":{"ha":1040,"x_min":125,"x_max":978,"o":"m 125 992 l 947 992 l 947 831 l 328 831 l 328 589 l 917 589 l 917 428 l 328 428 l 328 161 l 978 161 l 953 0 l 125 0 l 125 992 z "},"F":{"ha":953,"x_min":125,"x_max":908,"o":"m 125 992 l 908 992 l 908 826 l 331 826 l 331 565 l 878 565 l 878 400 l 331 400 l 331 0 l 125 0 l 125 992 z "},"G":{"ha":1221,"x_min":75,"x_max":1138,"o":"m 75 492 q 146 774 75 657 q 344 954 217 892 q 638 1017 471 1017 q 956 935 836 1017 q 1117 715 1075 853 l 911 689 q 812 810 881 771 q 632 849 743 849 q 375 754 464 849 q 286 494 286 660 q 383 233 286 324 q 660 143 479 143 q 947 199 829 143 l 947 379 l 663 379 l 663 536 l 1138 536 l 1138 111 q 921 10 1046 46 q 660 -25 796 -25 q 347 37 478 -25 q 145 214 215 99 q 75 492 75 329 z "},"H":{"ha":1224,"x_min":125,"x_max":1099,"o":"m 893 422 l 331 422 l 331 0 l 125 0 l 125 992 l 331 992 l 331 603 l 893 603 l 893 992 l 1099 992 l 1099 0 l 893 0 l 893 422 z "},"I":{"ha":456,"x_min":125,"x_max":331,"o":"m 125 992 l 331 992 l 331 0 l 125 0 l 125 992 z "},"J":{"ha":1033,"x_min":35,"x_max":919,"o":"m 714 375 l 714 992 l 919 992 l 919 376 q 809 77 919 179 q 483 -25 699 -25 q 165 65 279 -25 q 35 331 51 154 l 243 331 q 316 192 258 238 q 481 147 374 147 q 657 203 600 147 q 714 375 714 258 z "},"K":{"ha":1154,"x_min":125,"x_max":1132,"o":"m 125 992 l 331 992 l 331 544 l 847 992 l 1090 992 l 660 613 l 1132 0 l 892 0 l 515 490 l 331 335 l 331 0 l 125 0 l 125 992 z "},"L":{"ha":979,"x_min":125,"x_max":944,"o":"m 125 992 l 331 992 l 331 172 l 944 172 l 918 0 l 125 0 l 125 992 z "},"M":{"ha":1454,"x_min":125,"x_max":1329,"o":"m 125 992 l 365 992 l 731 218 l 1094 992 l 1329 992 l 1329 0 l 1136 0 l 1136 710 l 806 0 l 646 0 l 315 703 l 315 0 l 125 0 l 125 992 z "},"N":{"ha":1226,"x_min":125,"x_max":1101,"o":"m 125 992 l 314 992 l 904 281 l 904 992 l 1101 992 l 1101 0 l 913 0 l 322 713 l 322 0 l 125 0 l 125 992 z "},"O":{"ha":1292,"x_min":75,"x_max":1217,"o":"m 75 496 q 145 772 75 656 q 344 953 215 889 q 647 1017 472 1017 q 950 953 822 1017 q 1147 774 1078 890 q 1217 496 1217 657 q 1147 219 1217 336 q 948 39 1076 103 q 644 -25 819 -25 q 342 38 469 -25 q 144 219 214 101 q 75 496 75 336 m 289 496 q 383 239 289 331 q 646 147 478 147 q 908 240 814 147 q 1003 496 1003 332 q 909 753 1003 661 q 646 844 815 844 q 383 753 478 844 q 289 496 289 661 z "},"P":{"ha":1079,"x_min":125,"x_max":1015,"o":"m 125 992 l 604 992 q 1015 669 1015 992 q 909 423 1015 503 q 588 343 803 343 l 326 343 l 326 0 l 125 0 l 125 992 m 810 671 q 757 790 810 753 q 590 828 704 828 l 326 828 l 326 506 l 588 506 q 756 546 701 506 q 810 671 810 586 z "},"Q":{"ha":1292,"x_min":75,"x_max":1217,"o":"m 75 496 q 145 772 75 656 q 344 953 215 889 q 647 1017 472 1017 q 950 953 822 1017 q 1147 774 1078 890 q 1217 496 1217 657 q 1176 279 1217 375 q 1061 115 1135 183 l 1203 -26 l 1096 -131 l 932 33 q 799 -10 872 6 q 644 -25 726 -25 q 342 38 469 -25 q 144 219 214 101 q 75 496 75 336 m 288 496 q 382 238 288 329 q 646 146 476 146 q 800 172 736 146 l 675 297 l 781 399 l 922 256 q 983 359 961 299 q 1004 496 1004 419 q 910 753 1004 661 q 646 844 815 844 q 383 753 478 844 q 288 496 288 661 z "},"R":{"ha":1096,"x_min":125,"x_max":1076,"o":"m 125 992 l 607 992 q 1017 681 1017 992 q 969 513 1017 578 q 831 411 922 447 l 1076 0 l 850 0 l 635 371 q 614 371 625 371 q 585 371 603 371 l 321 371 l 321 0 l 125 0 l 125 992 m 813 682 q 761 797 813 763 q 594 832 710 832 l 321 832 l 321 531 l 592 531 q 758 567 703 531 q 813 682 813 604 z "},"S":{"ha":1096,"x_min":56,"x_max":1028,"o":"m 822 272 q 778 359 822 328 q 636 404 735 390 l 463 431 q 171 531 260 461 q 82 729 82 601 q 206 941 82 865 q 549 1017 331 1017 q 858 951 749 1017 q 1003 742 968 885 l 807 717 q 716 826 776 793 q 544 858 656 858 q 353 826 421 858 q 286 735 286 794 q 328 651 286 679 q 478 606 371 622 l 679 575 q 944 476 861 549 q 1028 276 1028 404 q 907 53 1028 132 q 561 -25 786 -25 q 56 303 90 -25 l 263 303 q 353 175 279 217 q 561 133 426 133 q 756 169 689 133 q 822 272 822 206 z "},"":{"ha":1096,"x_min":56,"x_max":1028,"o":"m 822 272 q 778 359 822 328 q 636 404 735 390 l 463 431 q 171 531 260 461 q 82 729 82 601 q 206 941 82 865 q 549 1017 331 1017 q 858 951 749 1017 q 1003 742 968 885 l 807 717 q 716 826 776 793 q 544 858 656 858 q 353 826 421 858 q 286 735 286 794 q 328 651 286 679 q 478 606 371 622 l 679 575 q 944 476 861 549 q 1028 276 1028 404 q 907 53 1028 132 q 561 -25 786 -25 q 56 303 90 -25 l 263 303 q 353 175 279 217 q 561 133 426 133 q 756 169 689 133 q 822 272 822 206 z "},"T":{"ha":1028,"x_min":18,"x_max":1008,"o":"m 411 819 l 18 819 l 18 992 l 1008 992 l 1008 819 l 617 819 l 617 0 l 411 0 l 411 819 z "},"U":{"ha":1189,"x_min":114,"x_max":1075,"o":"m 114 414 l 114 992 l 319 992 l 319 401 q 386 209 319 271 q 594 147 453 147 q 803 209 736 147 q 869 401 869 271 l 869 992 l 1075 992 l 1075 414 q 953 81 1075 188 q 594 -25 831 -25 q 235 81 357 -25 q 114 414 114 188 z "},"V":{"ha":1138,"x_min":19,"x_max":1118,"o":"m 894 992 l 1118 992 l 686 0 l 450 0 l 19 992 l 249 992 l 572 194 l 894 992 z "},"W":{"ha":1625,"x_min":25,"x_max":1601,"o":"m 474 231 l 715 986 l 915 986 l 1157 229 l 1382 992 l 1601 992 l 1268 0 l 1046 0 l 810 736 l 574 0 l 357 0 l 25 992 l 250 992 l 474 231 z "},"X":{"ha":1146,"x_min":19,"x_max":1128,"o":"m 568 644 l 849 992 l 1081 992 l 697 525 l 1128 0 l 881 0 l 564 393 l 251 0 l 19 0 l 438 515 l 50 992 l 297 992 l 568 644 z "},"Y":{"ha":1083,"x_min":19,"x_max":1065,"o":"m 439 401 l 19 992 l 250 992 l 546 563 l 840 992 l 1065 992 l 644 401 l 644 0 l 439 0 l 439 401 z "},"Z":{"ha":1007,"x_min":43,"x_max":975,"o":"m 43 150 l 692 825 l 56 825 l 56 992 l 950 992 l 950 842 l 301 167 l 975 167 l 949 0 l 43 0 l 43 150 z "},"[":{"ha":547,"x_min":125,"x_max":518,"o":"m 125 1019 l 518 1019 l 518 863 l 322 863 l 322 -15 l 518 -15 l 518 -172 l 125 -172 l 125 1019 z "},"\\":{"ha":604,"x_min":10,"x_max":593,"o":"m 593 0 l 403 0 l 10 1019 l 201 1019 l 593 0 z "},"]":{"ha":547,"x_min":29,"x_max":422,"o":"m 29 -15 l 225 -15 l 225 863 l 29 863 l 29 1019 l 422 1019 l 422 -172 l 29 -172 l 29 -15 z "},"^":{"ha":972,"x_min":63,"x_max":908,"o":"m 483 819 l 257 414 l 63 414 l 401 992 l 571 992 l 908 414 l 710 414 l 483 819 z "},"_":{"ha":847,"x_min":0,"x_max":847,"o":"m 0 -171 l 847 -171 l 847 -243 l 0 -243 l 0 -171 z "},"`":{"ha":996,"x_min":285,"x_max":711,"o":"m 711 818 l 529 818 l 285 1031 l 510 1031 l 711 818 z "},"a":{"ha":940,"x_min":58,"x_max":840,"o":"m 58 203 q 159 376 58 318 q 474 440 260 435 l 656 444 l 656 472 q 476 614 656 614 q 278 524 308 614 l 103 540 q 483 744 146 744 q 840 460 840 744 l 840 0 l 661 0 l 661 101 q 524 9 599 38 q 353 -19 450 -19 q 135 38 213 -19 q 58 203 58 96 m 247 217 q 407 114 247 114 q 526 135 469 114 q 619 194 583 156 q 656 288 656 233 l 656 331 l 483 326 q 304 297 361 324 q 247 217 247 271 z "},"b":{"ha":1026,"x_min":106,"x_max":957,"o":"m 296 0 l 106 0 l 106 992 l 300 992 l 300 611 q 427 710 349 675 q 599 744 506 744 q 788 697 707 744 q 913 566 868 650 q 957 368 957 482 q 910 166 957 254 q 779 28 864 78 q 579 -22 694 -22 q 296 104 393 -22 l 296 0 m 299 383 l 299 344 q 360 188 299 249 q 525 126 422 126 q 699 188 640 126 q 758 364 758 249 q 699 535 758 475 q 533 596 640 596 q 413 567 467 596 q 329 491 360 539 q 299 383 299 443 z "},"":{"ha":1026,"x_min":106,"x_max":957,"o":"m 296 0 l 106 0 l 106 992 l 300 992 l 300 611 q 427 710 349 675 q 599 744 506 744 q 788 697 707 744 q 913 566 868 650 q 957 368 957 482 q 910 166 957 254 q 779 28 864 78 q 579 -22 694 -22 q 296 104 393 -22 l 296 0 m 299 383 l 299 344 q 360 188 299 249 q 525 126 422 126 q 699 188 640 126 q 758 364 758 249 q 699 535 758 475 q 533 596 640 596 q 413 567 467 596 q 329 491 360 539 q 299 383 299 443 z "},"c":{"ha":933,"x_min":69,"x_max":876,"o":"m 69 358 q 122 564 69 478 q 269 697 174 650 q 493 744 364 744 q 747 675 656 744 q 864 490 838 606 l 679 467 q 493 596 644 596 q 327 535 386 596 q 268 363 268 474 q 326 188 268 249 q 494 126 385 126 q 690 261 664 126 l 876 261 q 760 53 857 129 q 490 -22 663 -22 q 178 80 288 -22 q 69 358 69 182 z "},"d":{"ha":1026,"x_min":69,"x_max":921,"o":"m 69 354 q 116 557 69 469 q 248 694 163 644 q 447 744 333 744 q 726 624 631 744 l 726 992 l 921 992 l 921 0 l 731 0 l 731 117 q 602 14 681 50 q 428 -22 524 -22 q 239 25 319 -22 q 114 157 158 72 q 69 354 69 242 m 268 358 q 327 188 268 249 q 494 126 386 126 q 615 155 563 126 q 697 232 667 183 q 728 340 728 281 l 728 378 q 666 535 728 474 q 501 596 604 596 q 328 535 388 596 q 268 358 268 474 z "},"e":{"ha":956,"x_min":69,"x_max":886,"o":"m 69 354 q 122 560 69 472 q 267 696 174 647 q 485 744 361 744 q 781 648 676 744 q 886 375 886 551 l 886 315 l 258 315 q 325 163 265 214 q 486 113 385 113 q 696 214 657 113 l 876 214 q 479 -22 818 -22 q 178 77 286 -22 q 69 354 69 176 m 294 522 q 282 501 294 522 q 263 431 271 481 l 703 431 q 645 568 697 525 q 483 611 593 611 q 363 587 408 611 q 294 522 317 563 z "},"f":{"ha":628,"x_min":31,"x_max":636,"o":"m 171 565 l 31 565 l 31 710 l 171 710 l 171 756 q 248 938 171 872 q 464 1003 325 1003 q 636 981 556 1003 l 607 847 q 558 856 582 854 q 504 858 533 858 q 365 756 365 858 l 365 710 l 599 710 l 599 565 l 365 565 l 365 0 l 171 0 l 171 565 z "},"g":{"ha":1010,"x_min":69,"x_max":921,"o":"m 726 69 l 726 147 q 428 22 626 22 q 240 67 321 22 q 115 192 160 111 q 69 381 69 274 q 117 568 69 486 q 249 697 164 650 q 447 744 335 744 q 612 714 543 744 q 732 621 681 683 l 732 722 l 921 722 l 921 119 q 822 -188 921 -92 q 507 -285 722 -285 q 221 -227 319 -285 q 104 -50 122 -169 l 293 -50 q 359 -125 310 -101 q 506 -149 408 -149 q 673 -96 619 -149 q 726 69 726 -43 m 728 394 q 665 543 728 489 q 501 597 601 597 q 329 542 390 597 q 268 383 268 486 q 328 225 268 282 q 494 168 389 168 q 614 193 561 168 q 697 264 667 218 q 728 369 728 310 l 728 394 z "},"h":{"ha":996,"x_min":106,"x_max":896,"o":"m 106 992 l 300 992 l 300 607 q 599 744 419 744 q 819 674 743 744 q 896 468 896 604 l 896 0 l 701 0 l 701 432 q 662 553 701 515 q 533 592 622 592 q 440 574 486 592 q 361 524 393 556 q 300 393 300 471 l 300 0 l 106 0 l 106 992 z "},"i":{"ha":406,"x_min":103,"x_max":303,"o":"m 106 722 l 300 722 l 300 0 l 106 0 l 106 722 m 103 999 l 303 999 l 303 842 l 103 842 l 103 999 z "},"j":{"ha":406,"x_min":-119,"x_max":303,"o":"m 106 -39 l 106 722 l 300 722 l 300 -24 q 241 -222 300 -158 q 54 -285 182 -285 q -119 -258 -36 -285 l -90 -125 q 13 -139 -33 -139 q 84 -116 63 -139 q 106 -39 106 -93 m 103 999 l 303 999 l 303 842 l 103 842 l 103 999 z "},"k":{"ha":940,"x_min":106,"x_max":936,"o":"m 106 992 l 300 992 l 300 457 l 654 722 l 901 722 l 586 488 l 936 0 l 717 0 l 449 386 l 300 275 l 300 0 l 106 0 l 106 992 z "},"l":{"ha":406,"x_min":106,"x_max":300,"o":"m 106 992 l 300 992 l 300 0 l 106 0 l 106 992 z "},"m":{"ha":1485,"x_min":106,"x_max":1385,"o":"m 106 722 l 296 722 l 296 603 q 419 708 351 672 q 571 744 486 744 q 818 601 761 744 q 1113 744 935 744 q 1315 674 1244 744 q 1385 468 1385 604 l 1385 0 l 1190 0 l 1190 435 q 1156 554 1190 517 q 1047 592 1122 592 q 897 531 963 592 q 843 413 843 481 l 843 0 l 649 0 l 649 435 q 615 554 649 517 q 504 592 581 592 q 354 525 418 592 q 300 396 300 471 l 300 0 l 106 0 l 106 722 z "},"n":{"ha":996,"x_min":106,"x_max":896,"o":"m 106 722 l 296 722 l 296 603 q 433 710 358 675 q 599 744 508 744 q 819 674 743 744 q 896 468 896 604 l 896 0 l 701 0 l 701 432 q 662 553 701 515 q 533 592 622 592 q 440 574 486 592 q 361 524 393 556 q 300 393 300 471 l 300 0 l 106 0 l 106 722 z "},"o":{"ha":1003,"x_min":69,"x_max":933,"o":"m 69 360 q 123 564 69 478 q 274 697 176 650 q 506 744 372 744 q 819 644 706 744 q 933 364 933 543 q 880 159 933 246 q 728 25 826 72 q 496 -22 631 -22 q 183 78 296 -22 q 69 360 69 179 m 268 363 q 328 188 268 249 q 500 126 389 126 q 672 188 611 126 q 733 361 733 249 q 673 535 733 474 q 501 596 613 596 q 329 535 390 596 q 268 363 268 474 z "},"p":{"ha":1026,"x_min":106,"x_max":957,"o":"m 106 722 l 296 722 l 296 606 q 424 708 344 672 q 599 744 503 744 q 788 697 707 744 q 913 566 868 650 q 957 368 957 482 q 910 166 957 254 q 779 28 864 78 q 579 -22 694 -22 q 300 101 396 -22 l 300 -269 l 106 -269 l 106 722 m 758 364 q 699 535 758 475 q 533 596 640 596 q 413 567 467 596 q 329 491 360 539 q 299 383 299 443 l 299 344 q 360 188 299 249 q 525 126 422 126 q 699 188 640 126 q 758 364 758 249 z "},"q":{"ha":1026,"x_min":69,"x_max":921,"o":"m 726 111 q 600 13 678 47 q 428 -22 522 -22 q 239 25 319 -22 q 114 157 158 72 q 69 354 69 242 q 116 557 69 469 q 248 694 163 644 q 447 744 333 744 q 732 615 636 744 l 732 722 l 921 722 l 921 -269 l 726 -269 l 726 111 m 728 340 l 728 378 q 666 535 728 474 q 501 596 604 596 q 328 535 388 596 q 268 358 268 474 q 327 188 268 249 q 494 126 386 126 q 615 154 563 126 q 698 231 668 182 q 728 340 728 279 z "},"r":{"ha":669,"x_min":106,"x_max":640,"o":"m 106 722 l 296 722 l 296 600 q 560 735 400 735 q 599 733 579 735 q 640 728 619 731 l 618 569 q 539 578 576 578 q 364 519 433 578 q 300 385 300 463 l 300 0 l 106 0 l 106 722 z "},"s":{"ha":893,"x_min":57,"x_max":833,"o":"m 649 201 q 613 258 649 239 q 478 292 576 278 l 390 304 q 150 381 221 331 q 79 529 79 432 q 174 688 79 632 q 440 744 269 744 q 701 693 614 744 q 817 539 788 642 l 638 521 q 440 617 606 617 q 308 594 356 617 q 260 531 260 571 q 294 475 260 494 q 422 442 329 456 l 517 428 q 706 384 638 411 q 804 315 775 357 q 833 207 833 272 q 460 -22 833 -22 q 184 33 292 -22 q 57 218 76 88 l 240 218 q 456 110 274 110 q 599 133 549 110 q 649 201 649 157 z "},"":{"ha":893,"x_min":57,"x_max":833,"o":"m 649 201 q 613 258 649 239 q 478 292 576 278 l 390 304 q 150 381 221 331 q 79 529 79 432 q 174 688 79 632 q 440 744 269 744 q 701 693 614 744 q 817 539 788 642 l 638 521 q 440 617 606 617 q 308 594 356 617 q 260 531 260 571 q 294 475 260 494 q 422 442 329 456 l 517 428 q 706 384 638 411 q 804 315 775 357 q 833 207 833 272 q 460 -22 833 -22 q 184 33 292 -22 q 57 218 76 88 l 240 218 q 456 110 274 110 q 599 133 549 110 q 649 201 649 157 z "},"t":{"ha":658,"x_min":31,"x_max":629,"o":"m 171 240 l 171 579 l 31 579 l 31 722 l 171 722 l 171 917 l 365 917 l 365 722 l 606 722 l 606 579 l 365 579 l 365 243 q 478 135 365 135 q 539 140 508 135 q 601 154 569 144 l 629 15 q 533 -7 581 0 q 429 -14 486 -14 q 233 47 294 -14 q 171 240 171 107 z "},"u":{"ha":982,"x_min":100,"x_max":876,"o":"m 100 251 l 100 722 l 294 722 l 294 286 q 453 131 294 131 q 622 197 547 131 q 683 328 683 251 l 683 722 l 876 722 l 876 0 l 686 0 l 686 121 q 555 15 628 51 q 388 -22 482 -22 q 175 49 250 -22 q 100 251 100 121 z "},"v":{"ha":899,"x_min":13,"x_max":886,"o":"m 451 175 l 681 722 l 886 722 l 553 0 l 346 0 l 13 722 l 225 722 l 451 175 z "},"w":{"ha":1297,"x_min":15,"x_max":1282,"o":"m 1092 722 l 1282 722 l 1025 0 l 835 0 l 649 508 l 464 0 l 272 0 l 15 722 l 214 722 l 382 200 l 568 718 l 738 718 l 925 204 l 1092 722 z "},"":{"ha":1297,"x_min":15,"x_max":1282,"o":"m 1092 722 l 1282 722 l 1025 0 l 835 0 l 649 508 l 464 0 l 272 0 l 15 722 l 214 722 l 382 200 l 568 718 l 738 718 l 925 204 l 1092 722 z "},"x":{"ha":904,"x_min":13,"x_max":892,"o":"m 451 496 l 640 722 l 857 722 l 561 385 l 892 0 l 665 0 l 449 256 l 231 0 l 13 0 l 339 374 l 38 722 l 263 722 l 451 496 z "},"y":{"ha":903,"x_min":13,"x_max":890,"o":"m 96 -119 q 145 -132 122 -128 q 193 -136 168 -136 q 279 -112 246 -136 q 339 -32 313 -87 l 371 36 l 13 722 l 228 722 l 465 214 l 685 722 l 890 722 l 517 -54 q 434 -192 475 -142 q 344 -263 393 -242 q 225 -285 294 -285 q 144 -278 181 -285 q 65 -256 108 -271 l 96 -119 z "},"":{"ha":903,"x_min":13,"x_max":890,"o":"m 96 -119 q 145 -132 122 -128 q 193 -136 168 -136 q 279 -112 246 -136 q 339 -32 313 -87 l 371 36 l 13 722 l 228 722 l 465 214 l 685 722 l 890 722 l 517 -54 q 434 -192 475 -142 q 344 -263 393 -242 q 225 -285 294 -285 q 144 -278 181 -285 q 65 -256 108 -271 l 96 -119 z "},"z":{"ha":835,"x_min":43,"x_max":793,"o":"m 43 125 l 517 578 l 53 578 l 53 722 l 764 722 l 764 597 l 290 144 l 793 144 l 772 0 l 43 0 l 43 125 z "},"{":{"ha":554,"x_min":32,"x_max":533,"o":"m 157 35 l 157 247 q 46 347 157 347 l 32 347 l 32 500 l 43 500 q 157 600 157 500 l 157 813 q 397 1019 157 1019 l 533 1019 l 533 863 l 436 863 q 349 783 349 863 l 349 568 q 231 424 349 449 q 349 279 349 399 l 349 64 q 436 -15 349 -15 l 533 -15 l 533 -172 l 397 -172 q 157 35 157 -172 z "},"|":{"ha":426,"x_min":125,"x_max":301,"o":"m 125 1019 l 301 1019 l 301 -172 l 125 -172 l 125 1019 z "},"}":{"ha":554,"x_min":21,"x_max":522,"o":"m 21 -15 l 118 -15 q 206 64 206 -15 l 206 279 q 324 424 206 399 q 206 568 206 449 l 206 783 q 118 863 206 863 l 21 863 l 21 1019 l 157 1019 q 397 813 397 1019 l 397 600 q 508 500 397 500 l 522 500 l 522 347 l 511 347 q 397 247 397 347 l 397 35 q 157 -172 397 -172 l 21 -172 l 21 -15 z "},"~":{"ha":972,"x_min":42,"x_max":931,"o":"m 42 333 q 297 626 42 626 q 406 608 354 626 q 517 549 457 590 q 599 501 567 515 q 664 488 632 488 q 764 610 764 488 l 931 610 q 675 317 931 317 q 568 335 619 317 q 456 394 517 353 q 373 442 406 428 q 308 456 340 456 q 208 333 208 456 l 42 333 z "}," ":{"ha":383,"x_min":0,"x_max":0,"o":""},"¡":{"ha":418,"x_min":106,"x_max":314,"o":"m 118 426 l 300 426 l 314 -269 l 106 -269 l 118 426 m 110 722 l 308 722 l 308 528 l 110 528 l 110 722 z "},"¢":{"ha":972,"x_min":78,"x_max":901,"o":"m 456 110 q 181 216 285 119 q 78 488 78 313 q 181 759 78 660 q 456 872 283 858 l 456 999 l 556 999 l 556 872 q 780 798 696 863 q 888 619 864 733 l 707 596 q 657 688 693 654 q 556 729 621 721 l 556 251 q 719 390 696 267 l 901 390 q 556 111 860 133 l 556 -22 l 456 -22 l 456 110 m 456 728 q 321 658 371 715 q 271 490 271 601 q 319 322 271 378 q 456 254 368 265 l 456 728 z "},"£":{"ha":972,"x_min":72,"x_max":919,"o":"m 108 136 q 189 228 165 181 q 213 349 213 276 q 210 404 213 372 l 72 404 l 72 550 l 182 550 q 169 626 174 594 q 165 682 165 657 q 211 844 165 776 q 342 949 257 913 q 542 986 426 986 q 904 735 858 986 l 728 711 q 665 804 706 778 q 546 831 625 831 q 404 790 456 831 q 353 675 353 749 q 358 611 353 643 q 369 550 363 579 l 740 550 l 740 404 l 394 404 q 396 354 396 376 q 378 253 396 299 q 314 161 361 207 l 919 161 l 894 0 l 108 0 l 108 136 z "},"¤":{"ha":972,"x_min":101,"x_max":869,"o":"m 136 483 q 192 683 136 596 l 101 781 l 231 896 l 319 799 q 486 836 394 836 q 653 799 578 836 l 742 896 l 869 781 l 781 683 q 836 483 836 596 q 779 283 836 371 l 869 186 l 742 71 l 653 169 q 486 131 578 131 q 319 169 394 131 l 231 71 l 101 186 l 192 285 q 136 483 136 372 m 307 483 q 353 328 307 382 q 486 274 399 274 q 619 328 572 274 q 665 483 665 382 q 619 639 665 585 q 486 693 572 693 q 353 639 399 693 q 307 483 307 585 z "},"¥":{"ha":972,"x_min":24,"x_max":949,"o":"m 392 115 l 93 115 l 93 225 l 392 225 l 392 331 l 93 331 l 93 440 l 374 440 l 346 474 l 24 960 l 231 960 l 489 553 l 749 960 l 949 960 l 626 474 l 599 440 l 879 440 l 879 331 l 581 331 l 581 225 l 879 225 l 879 115 l 581 115 l 581 0 l 392 0 l 392 115 z "},"¦":{"ha":426,"x_min":125,"x_max":301,"o":"m 125 318 l 301 318 l 301 -172 l 125 -172 l 125 318 m 125 1019 l 301 1019 l 301 553 l 125 553 l 125 1019 z "},"§":{"ha":894,"x_min":44,"x_max":842,"o":"m 656 63 q 622 128 656 104 q 506 168 589 151 l 350 199 q 126 283 193 231 q 58 428 58 335 q 214 611 58 568 q 99 682 135 639 q 64 790 64 725 q 164 957 64 897 q 446 1017 264 1017 q 710 963 614 1017 q 836 801 806 910 l 657 781 q 585 863 635 838 q 446 888 536 888 q 244 792 244 888 q 280 728 244 753 q 396 689 315 704 l 543 660 q 773 577 704 629 q 842 433 842 525 q 683 244 842 293 q 839 63 839 193 q 744 -109 839 -50 q 464 -168 649 -168 q 44 89 83 -168 l 232 89 q 300 -9 246 21 q 460 -39 354 -39 q 656 63 656 -39 m 672 417 q 637 485 672 460 q 515 529 601 511 l 438 544 q 369 553 399 553 q 265 524 303 553 q 226 442 226 494 q 263 373 226 399 q 383 329 299 347 l 461 313 q 497 307 481 308 q 529 306 514 306 q 635 335 597 306 q 672 417 672 364 z "},"¨":{"ha":996,"x_min":240,"x_max":754,"o":"m 240 999 l 419 999 l 419 842 l 240 842 l 240 999 m 575 999 l 754 999 l 754 842 l 575 842 l 575 999 z "},"©":{"ha":1276,"x_min":72,"x_max":1204,"o":"m 72 496 q 142 758 72 646 q 340 931 213 869 q 639 992 468 992 q 937 931 810 992 q 1134 758 1064 869 q 1204 496 1204 646 q 1134 234 1204 346 q 937 61 1064 122 q 639 0 810 0 q 340 61 468 0 q 142 234 213 122 q 72 496 72 346 m 197 496 q 251 290 197 376 q 403 156 304 203 q 639 108 503 108 q 874 156 775 108 q 1027 290 974 203 q 1081 496 1081 376 q 1027 702 1081 615 q 874 836 974 789 q 639 883 775 883 q 403 836 503 883 q 251 702 304 789 q 197 496 197 615 m 497 497 q 651 338 497 338 q 785 425 764 338 l 933 425 q 842 272 915 325 q 650 219 769 219 q 425 293 507 219 q 343 493 343 367 q 427 697 343 621 q 650 774 511 774 q 925 590 878 774 l 778 571 q 734 636 764 617 q 649 656 704 656 q 538 614 578 656 q 497 497 497 572 z "},"ª":{"ha":729,"x_min":53,"x_max":639,"o":"m 53 618 q 344 793 53 785 l 493 796 l 493 817 q 462 890 493 867 q 363 913 431 913 q 267 899 299 913 q 221 850 236 886 l 86 863 q 173 980 106 943 q 368 1017 240 1017 q 639 808 639 1017 l 639 472 l 500 472 l 500 547 q 281 458 429 458 q 112 500 171 458 q 53 618 53 542 m 201 631 q 315 561 201 561 q 443 590 397 561 q 493 679 493 625 l 493 710 l 354 707 q 236 688 271 706 q 201 631 201 669 z "},"«":{"ha":907,"x_min":51,"x_max":850,"o":"m 481 43 l 278 43 l 51 356 l 278 668 l 478 668 l 268 358 l 481 43 m 850 43 l 647 43 l 421 356 l 647 668 l 847 668 l 638 358 l 850 43 z "},"¬":{"ha":972,"x_min":86,"x_max":851,"o":"m 676 451 l 86 451 l 86 613 l 851 613 l 851 217 l 676 217 l 676 451 z "},"­":{"ha":667,"x_min":67,"x_max":601,"o":"m 67 497 l 601 497 l 601 324 l 67 324 l 67 497 z "},"®":{"ha":817,"x_min":56,"x_max":761,"o":"m 56 713 q 99 874 56 806 q 222 979 143 942 q 408 1017 301 1017 q 594 979 515 1017 q 717 874 674 942 q 761 713 761 806 q 717 552 761 621 q 594 446 674 483 q 408 408 515 408 q 222 446 301 408 q 99 552 143 483 q 56 713 56 621 m 139 713 q 210 544 139 606 q 408 483 282 483 q 607 544 536 483 q 678 713 678 606 q 607 882 678 821 q 408 943 536 943 q 210 882 282 943 q 139 713 139 821 m 353 569 l 271 569 l 271 861 l 424 861 q 526 838 493 861 q 558 767 558 814 q 503 688 558 711 l 578 569 l 490 569 l 431 668 l 353 668 l 353 569 m 478 765 q 464 790 478 782 q 415 797 450 797 l 353 797 l 353 732 l 419 732 q 465 740 451 732 q 478 765 478 749 z "},"¯":{"ha":996,"x_min":258,"x_max":736,"o":"m 258 986 l 736 986 l 736 856 l 258 856 l 258 986 z "},"°":{"ha":565,"x_min":43,"x_max":522,"o":"m 43 757 q 74 879 43 826 q 158 962 104 932 q 282 992 213 992 q 407 962 353 992 q 492 879 461 932 q 522 757 522 826 q 492 635 522 688 q 407 552 461 582 q 282 522 353 522 q 158 552 213 522 q 74 635 104 582 q 43 757 43 688 m 175 757 q 205 676 175 707 q 282 644 235 644 q 360 676 331 644 q 389 757 389 707 q 360 837 389 806 q 282 868 331 868 q 205 837 235 868 q 175 757 175 806 z "},"±":{"ha":972,"x_min":101,"x_max":871,"o":"m 399 469 l 101 469 l 101 619 l 399 619 l 399 857 l 574 857 l 574 619 l 871 619 l 871 469 l 574 469 l 574 233 l 399 233 l 399 469 m 122 150 l 850 150 l 850 0 l 122 0 l 122 150 z "},"²":{"ha":683,"x_min":81,"x_max":607,"o":"m 88 667 q 181 727 135 696 q 276 792 228 758 q 387 871 351 843 q 433 917 422 899 q 444 957 444 935 q 344 1032 444 1032 q 261 1012 290 1032 q 218 944 232 992 l 81 960 q 354 1146 125 1146 q 530 1099 465 1146 q 594 972 594 1051 q 578 903 594 935 q 517 834 561 871 q 392 742 474 797 q 350 714 375 731 q 290 676 325 697 l 607 676 l 589 564 l 88 564 l 88 667 z "},"³":{"ha":683,"x_min":79,"x_max":610,"o":"m 465 731 q 354 801 465 801 l 279 801 l 279 906 l 354 906 q 426 924 400 906 q 451 974 451 942 q 343 1038 451 1038 q 262 1020 290 1038 q 219 963 233 1003 l 86 978 q 174 1103 106 1060 q 347 1146 242 1146 q 528 1103 463 1146 q 594 986 594 1061 q 494 864 594 906 q 610 726 610 826 q 541 594 610 642 q 349 546 472 546 q 154 599 226 546 q 79 744 82 651 l 214 744 q 254 675 224 697 q 343 653 285 653 q 465 731 465 653 z "},"´":{"ha":996,"x_min":285,"x_max":711,"o":"m 486 1031 l 711 1031 l 467 818 l 285 818 l 486 1031 z "},"µ":{"ha":988,"x_min":106,"x_max":882,"o":"m 106 722 l 300 722 l 300 286 q 458 132 300 132 q 628 197 554 132 q 689 328 689 251 l 689 722 l 882 722 l 882 0 l 692 0 l 692 125 q 576 19 639 53 q 431 -15 513 -15 q 300 21 344 -15 l 300 -269 l 106 -269 l 106 722 z "},"¶":{"ha":1083,"x_min":32,"x_max":958,"o":"m 418 365 q 32 675 32 382 q 147 916 32 840 q 513 992 263 992 l 958 992 l 958 -193 l 778 -193 l 778 840 l 600 840 l 600 -193 l 418 -193 l 418 365 z "},"·":{"ha":401,"x_min":101,"x_max":300,"o":"m 101 625 l 300 625 l 300 414 l 101 414 l 101 625 z "},"¸":{"ha":996,"x_min":326,"x_max":668,"o":"m 326 -189 q 439 -201 392 -201 q 525 -165 525 -201 q 501 -137 525 -146 q 415 -129 476 -129 l 374 -129 l 438 22 l 538 0 l 511 -62 q 668 -179 668 -81 q 616 -267 668 -236 q 467 -297 564 -297 q 326 -282 369 -297 l 326 -189 z "},"¹":{"ha":683,"x_min":117,"x_max":490,"o":"m 339 976 l 176 879 l 117 981 l 357 1128 l 490 1128 l 490 564 l 339 564 l 339 976 z "},"º":{"ha":769,"x_min":63,"x_max":707,"o":"m 63 732 q 150 940 63 864 q 388 1017 238 1017 q 624 942 540 1017 q 707 736 707 868 q 619 528 707 606 q 382 451 532 451 q 147 526 231 451 q 63 732 63 600 m 219 733 q 263 616 219 657 q 383 575 306 575 q 507 617 464 575 q 550 735 550 658 q 507 852 550 811 q 386 893 464 893 q 263 852 306 893 q 219 733 219 811 z "},"»":{"ha":907,"x_min":57,"x_max":856,"o":"m 268 354 l 57 668 l 260 668 l 486 357 l 260 43 l 60 43 l 268 354 m 638 354 l 426 668 l 629 668 l 856 357 l 629 43 l 429 43 l 638 354 z "},"¼":{"ha":1571,"x_min":117,"x_max":1528,"o":"m 607 0 l 426 0 l 1003 960 l 1182 960 l 607 0 m 1294 117 l 949 117 l 949 214 l 1282 564 l 1426 564 l 1426 221 l 1528 221 l 1513 117 l 1426 117 l 1426 0 l 1294 0 l 1294 117 m 1294 436 l 1088 221 l 1294 221 l 1294 436 m 339 808 l 176 711 l 117 813 l 357 960 l 490 960 l 490 396 l 339 396 l 339 808 z "},"½":{"ha":1571,"x_min":117,"x_max":1494,"o":"m 574 0 l 393 0 l 969 960 l 1149 960 l 574 0 m 975 103 q 1069 163 1022 132 q 1164 228 1115 194 q 1274 307 1239 279 q 1321 353 1310 335 q 1332 393 1332 371 q 1232 468 1332 468 q 1149 448 1178 468 q 1106 381 1119 428 l 968 396 q 1242 582 1013 582 q 1417 535 1353 582 q 1482 408 1482 488 q 1465 339 1482 371 q 1405 270 1449 307 q 1279 178 1361 233 q 1238 150 1263 167 q 1178 113 1213 133 l 1494 113 l 1476 0 l 975 0 l 975 103 m 339 808 l 176 711 l 117 813 l 357 960 l 490 960 l 490 396 l 339 396 l 339 808 z "},"¾":{"ha":1571,"x_min":79,"x_max":1528,"o":"m 632 0 l 451 0 l 1028 960 l 1207 960 l 632 0 m 1294 117 l 949 117 l 949 214 l 1282 564 l 1426 564 l 1426 221 l 1528 221 l 1513 117 l 1426 117 l 1426 0 l 1294 0 l 1294 117 m 1294 436 l 1088 221 l 1294 221 l 1294 436 m 465 563 q 354 633 465 633 l 279 633 l 279 738 l 354 738 q 426 756 400 738 q 451 806 451 774 q 343 869 451 869 q 262 852 290 869 q 219 794 233 835 l 86 810 q 174 935 106 892 q 347 978 242 978 q 528 935 463 978 q 594 818 594 893 q 494 696 594 738 q 610 558 610 658 q 541 426 610 474 q 349 378 472 378 q 154 431 226 378 q 79 576 82 483 l 214 576 q 254 507 224 529 q 343 485 285 485 q 465 563 465 485 z "},"¿":{"ha":892,"x_min":69,"x_max":854,"o":"m 69 -26 q 106 109 69 51 q 236 233 143 167 q 319 301 290 274 q 358 353 347 328 q 369 408 369 378 l 369 426 l 550 426 l 550 406 q 536 321 550 358 q 488 247 522 283 q 393 165 454 210 q 317 102 343 128 q 280 54 290 76 q 269 3 269 32 q 316 -94 269 -60 q 449 -128 363 -128 q 599 -94 546 -128 q 674 17 651 -60 l 854 -4 q 724 -215 828 -143 q 442 -286 619 -286 q 168 -217 267 -286 q 69 -26 69 -149 m 361 722 l 560 722 l 560 528 l 361 528 l 361 722 z "},"À":{"ha":1186,"x_min":19,"x_max":1167,"o":"m 232 0 l 19 0 l 478 992 l 707 992 l 1167 0 l 947 0 l 842 235 l 335 235 l 232 0 m 590 817 l 403 394 l 776 394 l 590 817 m 725 1074 l 532 1074 l 285 1274 l 519 1274 l 725 1074 z "},"Á":{"ha":1186,"x_min":19,"x_max":1167,"o":"m 232 0 l 19 0 l 478 992 l 707 992 l 1167 0 l 947 0 l 842 235 l 335 235 l 232 0 m 590 817 l 403 394 l 776 394 l 590 817 m 661 1274 l 896 1274 l 649 1074 l 456 1074 l 661 1274 z "},"Â":{"ha":1186,"x_min":19,"x_max":1167,"o":"m 232 0 l 19 0 l 478 992 l 707 992 l 1167 0 l 947 0 l 842 235 l 335 235 l 232 0 m 590 817 l 403 394 l 776 394 l 590 817 m 497 1274 l 683 1274 l 883 1074 l 707 1074 l 590 1183 l 472 1074 l 297 1074 l 497 1274 z "},"Ã":{"ha":1186,"x_min":19,"x_max":1167,"o":"m 232 0 l 19 0 l 478 992 l 707 992 l 1167 0 l 947 0 l 842 235 l 335 235 l 232 0 m 590 817 l 403 394 l 776 394 l 590 817 m 428 1075 l 304 1075 q 344 1231 304 1182 q 465 1281 383 1281 q 533 1268 499 1281 q 618 1224 568 1256 q 672 1195 653 1204 q 707 1186 690 1186 q 744 1207 735 1186 q 754 1276 754 1228 l 878 1276 q 838 1121 878 1171 q 717 1071 799 1071 q 649 1083 683 1071 q 565 1126 615 1096 q 511 1156 531 1147 q 476 1164 492 1164 q 439 1143 450 1164 q 428 1075 428 1122 z "},"Ä":{"ha":1186,"x_min":19,"x_max":1167,"o":"m 232 0 l 19 0 l 478 992 l 707 992 l 1167 0 l 947 0 l 842 235 l 335 235 l 232 0 m 590 817 l 403 394 l 776 394 l 590 817 m 322 1256 l 511 1256 l 511 1085 l 322 1085 l 322 1256 m 669 1256 l 858 1256 l 858 1085 l 669 1085 l 669 1256 z "},"Å":{"ha":1186,"x_min":19,"x_max":1167,"o":"m 232 0 l 19 0 l 478 992 l 707 992 l 1167 0 l 947 0 l 842 235 l 335 235 l 232 0 m 590 817 l 403 394 l 776 394 l 590 817 m 399 1181 q 451 1297 399 1253 q 590 1340 504 1340 q 729 1297 676 1340 q 782 1181 782 1253 q 729 1066 782 1110 q 590 1022 676 1022 q 451 1066 504 1022 q 399 1181 399 1110 m 508 1181 q 590 1114 508 1114 q 672 1181 672 1114 q 590 1250 672 1250 q 508 1181 508 1250 z "},"Æ":{"ha":1794,"x_min":19,"x_max":1732,"o":"m 1701 831 l 1121 831 l 1121 589 l 1671 589 l 1671 428 l 1121 428 l 1121 161 l 1732 161 l 1707 0 l 925 0 l 925 297 l 456 297 l 246 0 l 19 0 l 731 992 l 1701 992 l 1701 831 m 925 831 l 828 831 l 564 456 l 925 456 l 925 831 z "},"Ç":{"ha":1199,"x_min":75,"x_max":1138,"o":"m 75 496 q 140 766 75 649 q 329 950 206 883 q 625 1017 453 1017 q 1121 679 1032 1017 l 918 654 q 814 800 883 756 q 624 844 744 844 q 378 752 468 844 q 289 496 289 660 q 379 240 289 332 q 629 147 469 147 q 833 195 760 147 q 931 344 907 243 l 1138 344 q 981 71 1114 167 q 626 -25 847 -25 q 328 40 451 -25 q 140 223 206 106 q 75 496 75 340 m 453 -201 q 518 -211 489 -208 q 569 -214 547 -214 q 660 -175 660 -214 q 633 -144 660 -153 q 542 -135 607 -135 l 503 -135 l 569 24 l 672 0 l 646 -67 q 807 -189 807 -83 q 752 -279 807 -247 q 597 -311 697 -311 q 514 -307 551 -311 q 453 -294 476 -303 l 453 -201 z "},"È":{"ha":1040,"x_min":125,"x_max":978,"o":"m 125 992 l 947 992 l 947 831 l 328 831 l 328 589 l 917 589 l 917 428 l 328 428 l 328 161 l 978 161 l 953 0 l 125 0 l 125 992 m 671 1074 l 478 1074 l 231 1274 l 465 1274 l 671 1074 z "},"É":{"ha":1040,"x_min":125,"x_max":978,"o":"m 125 992 l 947 992 l 947 831 l 328 831 l 328 589 l 917 589 l 917 428 l 328 428 l 328 161 l 978 161 l 953 0 l 125 0 l 125 992 m 607 1274 l 842 1274 l 594 1074 l 401 1074 l 607 1274 z "},"Ê":{"ha":1040,"x_min":125,"x_max":978,"o":"m 125 992 l 947 992 l 947 831 l 328 831 l 328 589 l 917 589 l 917 428 l 328 428 l 328 161 l 978 161 l 953 0 l 125 0 l 125 992 m 443 1274 l 629 1274 l 829 1074 l 653 1074 l 536 1183 l 418 1074 l 243 1074 l 443 1274 z "},"Ë":{"ha":1040,"x_min":125,"x_max":978,"o":"m 125 992 l 947 992 l 947 831 l 328 831 l 328 589 l 917 589 l 917 428 l 328 428 l 328 161 l 978 161 l 953 0 l 125 0 l 125 992 m 268 1256 l 457 1256 l 457 1085 l 268 1085 l 268 1256 m 615 1256 l 804 1256 l 804 1085 l 615 1085 l 615 1256 z "},"Ì":{"ha":456,"x_min":-78,"x_max":363,"o":"m 125 992 l 331 992 l 331 0 l 125 0 l 125 992 m 363 1074 l 169 1074 l -78 1274 l 157 1274 l 363 1074 z "},"Í":{"ha":456,"x_min":93,"x_max":533,"o":"m 125 992 l 331 992 l 331 0 l 125 0 l 125 992 m 299 1274 l 533 1274 l 286 1074 l 93 1074 l 299 1274 z "},"Î":{"ha":456,"x_min":-65,"x_max":521,"o":"m 125 992 l 331 992 l 331 0 l 125 0 l 125 992 m 135 1274 l 321 1274 l 521 1074 l 344 1074 l 228 1183 l 110 1074 l -65 1074 l 135 1274 z "},"Ï":{"ha":456,"x_min":-40,"x_max":496,"o":"m 125 992 l 331 992 l 331 0 l 125 0 l 125 992 m -40 1256 l 149 1256 l 149 1085 l -40 1085 l -40 1256 m 307 1256 l 496 1256 l 496 1085 l 307 1085 l 307 1256 z "},"Ð":{"ha":1263,"x_min":29,"x_max":1188,"o":"m 169 429 l 29 429 l 29 586 l 169 586 l 169 992 l 610 992 q 1040 865 892 992 q 1188 496 1188 738 q 1031 129 1188 258 q 583 0 874 0 l 169 0 l 169 429 m 653 429 l 369 429 l 369 168 l 590 168 q 878 251 781 168 q 976 497 976 333 q 613 824 976 824 l 369 824 l 369 586 l 653 586 l 653 429 z "},"Ñ":{"ha":1226,"x_min":125,"x_max":1101,"o":"m 125 992 l 314 992 l 904 281 l 904 992 l 1101 992 l 1101 0 l 913 0 l 322 713 l 322 0 l 125 0 l 125 992 m 447 1075 l 324 1075 q 363 1231 324 1182 q 485 1281 403 1281 q 553 1268 518 1281 q 638 1224 588 1256 q 691 1195 672 1204 q 726 1186 710 1186 q 764 1207 754 1186 q 774 1276 774 1228 l 897 1276 q 858 1121 897 1171 q 736 1071 818 1071 q 669 1083 703 1071 q 585 1126 635 1096 q 531 1156 550 1147 q 496 1164 511 1164 q 458 1143 469 1164 q 447 1075 447 1122 z "},"Ò":{"ha":1292,"x_min":75,"x_max":1217,"o":"m 75 496 q 145 772 75 656 q 344 953 215 889 q 647 1017 472 1017 q 950 953 822 1017 q 1147 774 1078 890 q 1217 496 1217 657 q 1147 219 1217 336 q 948 39 1076 103 q 644 -25 819 -25 q 342 38 469 -25 q 144 219 214 101 q 75 496 75 336 m 289 496 q 383 239 289 331 q 646 147 478 147 q 908 240 814 147 q 1003 496 1003 332 q 909 753 1003 661 q 646 844 815 844 q 383 753 478 844 q 289 496 289 661 m 781 1074 l 588 1074 l 340 1274 l 575 1274 l 781 1074 z "},"Ó":{"ha":1292,"x_min":75,"x_max":1217,"o":"m 75 496 q 145 772 75 656 q 344 953 215 889 q 647 1017 472 1017 q 950 953 822 1017 q 1147 774 1078 890 q 1217 496 1217 657 q 1147 219 1217 336 q 948 39 1076 103 q 644 -25 819 -25 q 342 38 469 -25 q 144 219 214 101 q 75 496 75 336 m 289 496 q 383 239 289 331 q 646 147 478 147 q 908 240 814 147 q 1003 496 1003 332 q 909 753 1003 661 q 646 844 815 844 q 383 753 478 844 q 289 496 289 661 m 717 1274 l 951 1274 l 704 1074 l 511 1074 l 717 1274 z "},"Ô":{"ha":1292,"x_min":75,"x_max":1217,"o":"m 75 496 q 145 772 75 656 q 344 953 215 889 q 647 1017 472 1017 q 950 953 822 1017 q 1147 774 1078 890 q 1217 496 1217 657 q 1147 219 1217 336 q 948 39 1076 103 q 644 -25 819 -25 q 342 38 469 -25 q 144 219 214 101 q 75 496 75 336 m 289 496 q 383 239 289 331 q 646 147 478 147 q 908 240 814 147 q 1003 496 1003 332 q 909 753 1003 661 q 646 844 815 844 q 383 753 478 844 q 289 496 289 661 m 553 1274 l 739 1274 l 939 1074 l 763 1074 l 646 1183 l 528 1074 l 353 1074 l 553 1274 z "},"Õ":{"ha":1292,"x_min":75,"x_max":1217,"o":"m 75 496 q 145 772 75 656 q 344 953 215 889 q 647 1017 472 1017 q 950 953 822 1017 q 1147 774 1078 890 q 1217 496 1217 657 q 1147 219 1217 336 q 948 39 1076 103 q 644 -25 819 -25 q 342 38 469 -25 q 144 219 214 101 q 75 496 75 336 m 289 496 q 383 239 289 331 q 646 147 478 147 q 908 240 814 147 q 1003 496 1003 332 q 909 753 1003 661 q 646 844 815 844 q 383 753 478 844 q 289 496 289 661 m 483 1075 l 360 1075 q 399 1231 360 1182 q 521 1281 439 1281 q 589 1268 554 1281 q 674 1224 624 1256 q 727 1195 708 1204 q 763 1186 746 1186 q 800 1207 790 1186 q 810 1276 810 1228 l 933 1276 q 894 1121 933 1171 q 772 1071 854 1071 q 705 1083 739 1071 q 621 1126 671 1096 q 567 1156 586 1147 q 532 1164 547 1164 q 494 1143 506 1164 q 483 1075 483 1122 z "},"Ö":{"ha":1292,"x_min":75,"x_max":1217,"o":"m 75 496 q 145 772 75 656 q 344 953 215 889 q 647 1017 472 1017 q 950 953 822 1017 q 1147 774 1078 890 q 1217 496 1217 657 q 1147 219 1217 336 q 948 39 1076 103 q 644 -25 819 -25 q 342 38 469 -25 q 144 219 214 101 q 75 496 75 336 m 289 496 q 383 239 289 331 q 646 147 478 147 q 908 240 814 147 q 1003 496 1003 332 q 909 753 1003 661 q 646 844 815 844 q 383 753 478 844 q 289 496 289 661 m 378 1256 l 567 1256 l 567 1085 l 378 1085 l 378 1256 m 725 1256 l 914 1256 l 914 1085 l 725 1085 l 725 1256 z "},"×":{"ha":972,"x_min":139,"x_max":833,"o":"m 139 249 l 369 475 l 139 701 l 256 817 l 486 589 l 717 817 l 833 701 l 603 475 l 833 249 l 717 133 l 486 360 l 256 133 l 139 249 z "},"Ø":{"ha":1292,"x_min":75,"x_max":1217,"o":"m 75 496 q 145 772 75 656 q 344 953 215 889 q 647 1017 472 1017 q 939 958 813 1017 l 1032 1074 l 1132 999 l 1046 892 q 1172 724 1128 824 q 1217 496 1217 624 q 1147 219 1217 336 q 948 39 1076 103 q 644 -25 819 -25 q 353 33 479 -25 l 260 -82 l 160 -7 l 246 100 q 119 268 164 168 q 75 496 75 368 m 285 496 q 367 250 285 340 l 822 814 q 646 847 747 847 q 381 756 476 847 q 285 496 285 664 m 469 178 q 646 144 544 144 q 911 236 815 144 q 1007 496 1007 328 q 925 742 1007 651 l 469 178 z "},"Ù":{"ha":1189,"x_min":114,"x_max":1075,"o":"m 114 414 l 114 992 l 319 992 l 319 401 q 386 209 319 271 q 594 147 453 147 q 803 209 736 147 q 869 401 869 271 l 869 992 l 1075 992 l 1075 414 q 953 81 1075 188 q 594 -25 831 -25 q 235 81 357 -25 q 114 414 114 188 m 729 1074 l 536 1074 l 289 1274 l 524 1274 l 729 1074 z "},"Ú":{"ha":1189,"x_min":114,"x_max":1075,"o":"m 114 414 l 114 992 l 319 992 l 319 401 q 386 209 319 271 q 594 147 453 147 q 803 209 736 147 q 869 401 869 271 l 869 992 l 1075 992 l 1075 414 q 953 81 1075 188 q 594 -25 831 -25 q 235 81 357 -25 q 114 414 114 188 m 665 1274 l 900 1274 l 653 1074 l 460 1074 l 665 1274 z "},"Û":{"ha":1189,"x_min":114,"x_max":1075,"o":"m 114 414 l 114 992 l 319 992 l 319 401 q 386 209 319 271 q 594 147 453 147 q 803 209 736 147 q 869 401 869 271 l 869 992 l 1075 992 l 1075 414 q 953 81 1075 188 q 594 -25 831 -25 q 235 81 357 -25 q 114 414 114 188 m 501 1274 l 688 1274 l 888 1074 l 711 1074 l 594 1183 l 476 1074 l 301 1074 l 501 1274 z "},"Ü":{"ha":1189,"x_min":114,"x_max":1075,"o":"m 114 414 l 114 992 l 319 992 l 319 401 q 386 209 319 271 q 594 147 453 147 q 803 209 736 147 q 869 401 869 271 l 869 992 l 1075 992 l 1075 414 q 953 81 1075 188 q 594 -25 831 -25 q 235 81 357 -25 q 114 414 114 188 m 326 1256 l 515 1256 l 515 1085 l 326 1085 l 326 1256 m 674 1256 l 863 1256 l 863 1085 l 674 1085 l 674 1256 z "},"Ý":{"ha":1083,"x_min":19,"x_max":1065,"o":"m 439 401 l 19 992 l 250 992 l 546 563 l 840 992 l 1065 992 l 644 401 l 644 0 l 439 0 l 439 401 m 617 1274 l 851 1274 l 604 1074 l 411 1074 l 617 1274 z "},"Þ":{"ha":1079,"x_min":125,"x_max":1015,"o":"m 125 992 l 326 992 l 326 828 l 604 828 q 1015 504 1015 828 q 909 258 1015 339 q 588 178 803 178 l 326 178 l 326 0 l 125 0 l 125 992 m 810 506 q 757 626 810 589 q 590 664 704 664 l 326 664 l 326 342 l 588 342 q 756 381 701 342 q 810 506 810 421 z "},"ß":{"ha":1022,"x_min":103,"x_max":953,"o":"m 760 288 q 500 449 760 449 l 417 449 l 417 593 l 483 593 q 678 733 678 593 q 628 825 678 793 q 489 857 579 857 q 294 703 294 857 l 294 0 l 103 0 l 103 688 q 204 919 103 836 q 489 1003 306 1003 q 767 938 667 1003 q 868 756 868 872 q 829 629 868 679 q 708 549 790 579 q 888 453 824 525 q 953 281 953 382 q 853 58 953 138 q 576 -22 754 -22 q 388 1 474 -22 l 414 143 q 478 131 442 136 q 547 126 514 126 q 709 165 658 126 q 760 288 760 203 z "},"à":{"ha":940,"x_min":58,"x_max":840,"o":"m 58 203 q 159 376 58 318 q 474 440 260 435 l 656 444 l 656 472 q 476 614 656 614 q 278 524 308 614 l 103 540 q 483 744 146 744 q 840 460 840 744 l 840 0 l 661 0 l 661 101 q 524 9 599 38 q 353 -19 450 -19 q 135 38 213 -19 q 58 203 58 96 m 247 217 q 407 114 247 114 q 526 135 469 114 q 619 194 583 156 q 656 288 656 233 l 656 331 l 483 326 q 304 297 361 324 q 247 217 247 271 m 617 818 l 435 818 l 190 1031 l 415 1031 l 617 818 z "},"á":{"ha":940,"x_min":58,"x_max":840,"o":"m 58 203 q 159 376 58 318 q 474 440 260 435 l 656 444 l 656 472 q 476 614 656 614 q 278 524 308 614 l 103 540 q 483 744 146 744 q 840 460 840 744 l 840 0 l 661 0 l 661 101 q 524 9 599 38 q 353 -19 450 -19 q 135 38 213 -19 q 58 203 58 96 m 247 217 q 407 114 247 114 q 526 135 469 114 q 619 194 583 156 q 656 288 656 233 l 656 331 l 483 326 q 304 297 361 324 q 247 217 247 271 m 551 1031 l 776 1031 l 532 818 l 350 818 l 551 1031 z "},"â":{"ha":940,"x_min":58,"x_max":840,"o":"m 58 203 q 159 376 58 318 q 474 440 260 435 l 656 444 l 656 472 q 476 614 656 614 q 278 524 308 614 l 103 540 q 483 744 146 744 q 840 460 840 744 l 840 0 l 661 0 l 661 101 q 524 9 599 38 q 353 -19 450 -19 q 135 38 213 -19 q 58 203 58 96 m 247 217 q 407 114 247 114 q 526 135 469 114 q 619 194 583 156 q 656 288 656 233 l 656 331 l 483 326 q 304 297 361 324 q 247 217 247 271 m 392 1031 l 575 1031 l 778 818 l 608 818 l 483 939 l 357 818 l 189 818 l 392 1031 z "},"ã":{"ha":940,"x_min":58,"x_max":840,"o":"m 58 203 q 159 376 58 318 q 474 440 260 435 l 656 444 l 656 472 q 476 614 656 614 q 278 524 308 614 l 103 540 q 483 744 146 744 q 840 460 840 744 l 840 0 l 661 0 l 661 101 q 524 9 599 38 q 353 -19 450 -19 q 135 38 213 -19 q 58 203 58 96 m 247 217 q 407 114 247 114 q 526 135 469 114 q 619 194 583 156 q 656 288 656 233 l 656 331 l 483 326 q 304 297 361 324 q 247 217 247 271 m 321 824 l 199 824 q 238 981 199 931 q 358 1031 278 1031 q 432 1018 397 1031 q 510 974 467 1006 q 558 944 540 951 q 592 936 575 936 q 646 1026 646 936 l 767 1026 q 727 869 767 919 q 607 819 688 819 q 535 833 569 819 q 456 876 500 846 q 408 907 425 900 q 374 914 392 914 q 321 824 321 914 z "},"ä":{"ha":940,"x_min":58,"x_max":840,"o":"m 58 203 q 159 376 58 318 q 474 440 260 435 l 656 444 l 656 472 q 476 614 656 614 q 278 524 308 614 l 103 540 q 483 744 146 744 q 840 460 840 744 l 840 0 l 661 0 l 661 101 q 524 9 599 38 q 353 -19 450 -19 q 135 38 213 -19 q 58 203 58 96 m 247 217 q 407 114 247 114 q 526 135 469 114 q 619 194 583 156 q 656 288 656 233 l 656 331 l 483 326 q 304 297 361 324 q 247 217 247 271 m 226 999 l 406 999 l 406 842 l 226 842 l 226 999 m 561 999 l 740 999 l 740 842 l 561 842 l 561 999 z "},"å":{"ha":940,"x_min":58,"x_max":840,"o":"m 58 203 q 159 376 58 318 q 474 440 260 435 l 656 444 l 656 472 q 476 614 656 614 q 278 524 308 614 l 103 540 q 483 744 146 744 q 840 460 840 744 l 840 0 l 661 0 l 661 101 q 524 9 599 38 q 353 -19 450 -19 q 135 38 213 -19 q 58 203 58 96 m 247 217 q 407 114 247 114 q 526 135 469 114 q 619 194 583 156 q 656 288 656 233 l 656 331 l 483 326 q 304 297 361 324 q 247 217 247 271 m 297 963 q 350 1076 297 1036 q 483 1117 403 1117 q 617 1076 564 1117 q 669 963 669 1036 q 616 849 669 890 q 483 808 563 808 q 351 849 404 808 q 297 963 297 890 m 403 963 q 424 914 403 931 q 483 897 446 897 q 542 914 521 897 q 564 963 564 931 q 483 1028 564 1028 q 403 963 403 1028 z "},"æ":{"ha":1518,"x_min":58,"x_max":1449,"o":"m 58 203 q 160 376 58 318 q 474 440 261 435 l 647 444 l 647 476 q 476 614 647 614 q 278 524 308 614 l 103 540 q 483 744 146 744 q 663 713 596 744 q 761 632 731 682 q 1054 744 869 744 q 1344 647 1240 744 q 1449 375 1449 550 l 1449 315 l 829 315 q 897 163 839 213 q 1056 113 956 113 q 1257 214 1219 113 l 1439 214 q 1050 -22 1381 -22 q 719 126 819 -22 q 567 15 665 50 q 353 -19 469 -19 q 135 38 213 -19 q 58 203 58 96 m 247 217 q 407 114 247 114 q 526 135 471 114 q 614 197 581 157 q 647 288 647 236 l 647 331 l 483 326 q 304 297 361 324 q 247 217 247 271 m 1265 431 q 1208 565 1263 518 q 1051 611 1153 611 q 934 586 979 611 q 865 520 889 561 q 833 431 842 479 l 1265 431 z "},"ç":{"ha":933,"x_min":69,"x_max":876,"o":"m 69 358 q 122 564 69 478 q 269 697 174 650 q 493 744 364 744 q 747 675 656 744 q 864 490 838 606 l 679 467 q 493 596 644 596 q 327 535 386 596 q 268 363 268 474 q 326 188 268 249 q 494 126 385 126 q 690 261 664 126 l 876 261 q 760 53 857 129 q 490 -22 663 -22 q 178 80 288 -22 q 69 358 69 182 m 317 -189 q 429 -201 382 -201 q 515 -165 515 -201 q 491 -137 515 -146 q 406 -129 467 -129 l 364 -129 l 428 22 l 528 0 l 501 -62 q 658 -179 658 -81 q 606 -267 658 -236 q 457 -297 554 -297 q 317 -282 360 -297 l 317 -189 z "},"è":{"ha":956,"x_min":69,"x_max":886,"o":"m 69 354 q 122 560 69 472 q 267 696 174 647 q 485 744 361 744 q 781 648 676 744 q 886 375 886 551 l 886 315 l 258 315 q 325 163 265 214 q 486 113 385 113 q 696 214 657 113 l 876 214 q 479 -22 818 -22 q 178 77 286 -22 q 69 354 69 176 m 294 522 q 282 501 294 522 q 263 431 271 481 l 703 431 q 645 568 697 525 q 483 611 593 611 q 363 587 408 611 q 294 522 317 563 m 622 818 l 440 818 l 196 1031 l 421 1031 l 622 818 z "},"é":{"ha":956,"x_min":69,"x_max":886,"o":"m 69 354 q 122 560 69 472 q 267 696 174 647 q 485 744 361 744 q 781 648 676 744 q 886 375 886 551 l 886 315 l 258 315 q 325 163 265 214 q 486 113 385 113 q 696 214 657 113 l 876 214 q 479 -22 818 -22 q 178 77 286 -22 q 69 354 69 176 m 294 522 q 282 501 294 522 q 263 431 271 481 l 703 431 q 645 568 697 525 q 483 611 593 611 q 363 587 408 611 q 294 522 317 563 m 557 1031 l 782 1031 l 538 818 l 356 818 l 557 1031 z "},"ê":{"ha":956,"x_min":69,"x_max":886,"o":"m 69 354 q 122 560 69 472 q 267 696 174 647 q 485 744 361 744 q 781 648 676 744 q 886 375 886 551 l 886 315 l 258 315 q 325 163 265 214 q 486 113 385 113 q 696 214 657 113 l 876 214 q 479 -22 818 -22 q 178 77 286 -22 q 69 354 69 176 m 294 522 q 282 501 294 522 q 263 431 271 481 l 703 431 q 645 568 697 525 q 483 611 593 611 q 363 587 408 611 q 294 522 317 563 m 397 1031 l 581 1031 l 783 818 l 614 818 l 489 939 l 363 818 l 194 818 l 397 1031 z "},"ë":{"ha":956,"x_min":69,"x_max":886,"o":"m 69 354 q 122 560 69 472 q 267 696 174 647 q 485 744 361 744 q 781 648 676 744 q 886 375 886 551 l 886 315 l 258 315 q 325 163 265 214 q 486 113 385 113 q 696 214 657 113 l 876 214 q 479 -22 818 -22 q 178 77 286 -22 q 69 354 69 176 m 294 522 q 282 501 294 522 q 263 431 271 481 l 703 431 q 645 568 697 525 q 483 611 593 611 q 363 587 408 611 q 294 522 317 563 m 232 999 l 411 999 l 411 842 l 232 842 l 232 999 m 567 999 l 746 999 l 746 842 l 567 842 l 567 999 z "},"ì":{"ha":406,"x_min":-90,"x_max":336,"o":"m 106 722 l 300 722 l 300 0 l 106 0 l 106 722 m 336 818 l 154 818 l -90 1031 l 135 1031 l 336 818 z "},"í":{"ha":406,"x_min":69,"x_max":496,"o":"m 106 722 l 300 722 l 300 0 l 106 0 l 106 722 m 271 1031 l 496 1031 l 251 818 l 69 818 l 271 1031 z "},"î":{"ha":406,"x_min":-92,"x_max":497,"o":"m 106 722 l 300 722 l 300 0 l 106 0 l 106 722 m 111 1031 l 294 1031 l 497 818 l 328 818 l 203 939 l 76 818 l -92 818 l 111 1031 z "},"ï":{"ha":406,"x_min":-54,"x_max":460,"o":"m 106 722 l 300 722 l 300 0 l 106 0 l 106 722 m -54 999 l 125 999 l 125 842 l -54 842 l -54 999 m 281 999 l 460 999 l 460 842 l 281 842 l 281 999 z "},"ð":{"ha":1000,"x_min":69,"x_max":931,"o":"m 69 322 q 115 497 69 417 q 249 625 160 576 q 468 674 338 674 q 612 654 551 674 q 726 589 672 635 q 647 738 703 679 q 510 831 590 796 l 386 722 l 319 790 l 403 865 q 312 881 360 875 q 213 890 264 888 l 232 1028 q 390 1011 315 1022 q 532 979 465 1000 l 642 1076 l 708 1007 l 629 936 q 852 731 774 861 q 931 404 931 601 q 886 192 931 289 q 745 36 842 94 q 492 -22 649 -22 q 267 19 361 -22 q 121 138 172 61 q 69 322 69 215 m 268 326 q 329 178 268 232 q 500 125 390 125 q 632 153 581 125 q 708 230 683 182 q 733 333 733 278 q 671 478 733 428 q 499 528 608 528 q 367 500 418 528 q 292 426 317 472 q 268 326 268 381 z "},"ñ":{"ha":996,"x_min":106,"x_max":896,"o":"m 106 722 l 296 722 l 296 603 q 433 710 358 675 q 599 744 508 744 q 819 674 743 744 q 896 468 896 604 l 896 0 l 701 0 l 701 432 q 662 553 701 515 q 533 592 622 592 q 440 574 486 592 q 361 524 393 556 q 300 393 300 471 l 300 0 l 106 0 l 106 722 m 343 824 l 221 824 q 260 981 221 931 q 381 1031 300 1031 q 454 1018 419 1031 q 532 974 489 1006 q 580 944 563 951 q 614 936 597 936 q 668 1026 668 936 l 789 1026 q 749 869 789 919 q 629 819 710 819 q 557 833 592 819 q 478 876 522 846 q 431 907 447 900 q 396 914 414 914 q 343 824 343 914 z "},"ò":{"ha":1003,"x_min":69,"x_max":933,"o":"m 69 360 q 123 564 69 478 q 274 697 176 650 q 506 744 372 744 q 819 644 706 744 q 933 364 933 543 q 880 159 933 246 q 728 25 826 72 q 496 -22 631 -22 q 183 78 296 -22 q 69 360 69 179 m 268 363 q 328 188 268 249 q 500 126 389 126 q 672 188 611 126 q 733 361 733 249 q 673 535 733 474 q 501 596 613 596 q 329 535 390 596 q 268 363 268 474 m 635 818 l 453 818 l 208 1031 l 433 1031 l 635 818 z "},"ó":{"ha":1003,"x_min":69,"x_max":933,"o":"m 69 360 q 123 564 69 478 q 274 697 176 650 q 506 744 372 744 q 819 644 706 744 q 933 364 933 543 q 880 159 933 246 q 728 25 826 72 q 496 -22 631 -22 q 183 78 296 -22 q 69 360 69 179 m 268 363 q 328 188 268 249 q 500 126 389 126 q 672 188 611 126 q 733 361 733 249 q 673 535 733 474 q 501 596 613 596 q 329 535 390 596 q 268 363 268 474 m 569 1031 l 794 1031 l 550 818 l 368 818 l 569 1031 z "},"ô":{"ha":1003,"x_min":69,"x_max":933,"o":"m 69 360 q 123 564 69 478 q 274 697 176 650 q 506 744 372 744 q 819 644 706 744 q 933 364 933 543 q 880 159 933 246 q 728 25 826 72 q 496 -22 631 -22 q 183 78 296 -22 q 69 360 69 179 m 268 363 q 328 188 268 249 q 500 126 389 126 q 672 188 611 126 q 733 361 733 249 q 673 535 733 474 q 501 596 613 596 q 329 535 390 596 q 268 363 268 474 m 410 1031 l 593 1031 l 796 818 l 626 818 l 501 939 l 375 818 l 207 818 l 410 1031 z "},"õ":{"ha":1003,"x_min":69,"x_max":933,"o":"m 69 360 q 123 564 69 478 q 274 697 176 650 q 506 744 372 744 q 819 644 706 744 q 933 364 933 543 q 880 159 933 246 q 728 25 826 72 q 496 -22 631 -22 q 183 78 296 -22 q 69 360 69 179 m 268 363 q 328 188 268 249 q 500 126 389 126 q 672 188 611 126 q 733 361 733 249 q 673 535 733 474 q 501 596 613 596 q 329 535 390 596 q 268 363 268 474 m 339 824 l 217 824 q 256 981 217 931 q 376 1031 296 1031 q 450 1018 415 1031 q 528 974 485 1006 q 576 944 558 951 q 610 936 593 936 q 664 1026 664 936 l 785 1026 q 745 869 785 919 q 625 819 706 819 q 553 833 588 819 q 474 876 518 846 q 426 907 443 900 q 392 914 410 914 q 339 824 339 914 z "},"ö":{"ha":1003,"x_min":69,"x_max":933,"o":"m 69 360 q 123 564 69 478 q 274 697 176 650 q 506 744 372 744 q 819 644 706 744 q 933 364 933 543 q 880 159 933 246 q 728 25 826 72 q 496 -22 631 -22 q 183 78 296 -22 q 69 360 69 179 m 268 363 q 328 188 268 249 q 500 126 389 126 q 672 188 611 126 q 733 361 733 249 q 673 535 733 474 q 501 596 613 596 q 329 535 390 596 q 268 363 268 474 m 244 999 l 424 999 l 424 842 l 244 842 l 244 999 m 579 999 l 758 999 l 758 842 l 579 842 l 579 999 z "},"÷":{"ha":972,"x_min":99,"x_max":874,"o":"m 99 553 l 874 553 l 874 392 l 99 392 l 99 553 m 396 283 l 576 283 l 576 115 l 396 115 l 396 283 m 396 829 l 576 829 l 576 661 l 396 661 l 396 829 z "},"ø":{"ha":1003,"x_min":69,"x_max":933,"o":"m 69 360 q 123 564 69 478 q 274 697 176 650 q 506 744 372 744 q 717 707 625 744 l 801 808 l 888 738 l 814 649 q 902 528 871 600 q 933 364 933 456 q 880 159 933 246 q 728 25 826 72 q 496 -22 631 -22 q 283 15 375 -22 l 200 -85 l 115 -14 l 189 74 q 100 194 131 122 q 69 360 69 267 m 258 363 q 300 207 258 268 l 614 585 q 501 604 565 604 q 322 541 385 604 q 258 363 258 478 m 388 139 q 500 119 436 119 q 680 183 617 119 q 743 361 743 246 q 701 515 743 456 l 388 139 z "},"ù":{"ha":982,"x_min":100,"x_max":876,"o":"m 100 251 l 100 722 l 294 722 l 294 286 q 453 131 294 131 q 622 197 547 131 q 683 328 683 251 l 683 722 l 876 722 l 876 0 l 686 0 l 686 121 q 555 15 628 51 q 388 -22 482 -22 q 175 49 250 -22 q 100 251 100 121 m 622 818 l 440 818 l 196 1031 l 421 1031 l 622 818 z "},"ú":{"ha":982,"x_min":100,"x_max":876,"o":"m 100 251 l 100 722 l 294 722 l 294 286 q 453 131 294 131 q 622 197 547 131 q 683 328 683 251 l 683 722 l 876 722 l 876 0 l 686 0 l 686 121 q 555 15 628 51 q 388 -22 482 -22 q 175 49 250 -22 q 100 251 100 121 m 557 1031 l 782 1031 l 538 818 l 356 818 l 557 1031 z "},"û":{"ha":982,"x_min":100,"x_max":876,"o":"m 100 251 l 100 722 l 294 722 l 294 286 q 453 131 294 131 q 622 197 547 131 q 683 328 683 251 l 683 722 l 876 722 l 876 0 l 686 0 l 686 121 q 555 15 628 51 q 388 -22 482 -22 q 175 49 250 -22 q 100 251 100 121 m 397 1031 l 581 1031 l 783 818 l 614 818 l 489 939 l 363 818 l 194 818 l 397 1031 z "},"ü":{"ha":982,"x_min":100,"x_max":876,"o":"m 100 251 l 100 722 l 294 722 l 294 286 q 453 131 294 131 q 622 197 547 131 q 683 328 683 251 l 683 722 l 876 722 l 876 0 l 686 0 l 686 121 q 555 15 628 51 q 388 -22 482 -22 q 175 49 250 -22 q 100 251 100 121 m 232 999 l 411 999 l 411 842 l 232 842 l 232 999 m 567 999 l 746 999 l 746 842 l 567 842 l 567 999 z "},"ý":{"ha":903,"x_min":13,"x_max":890,"o":"m 96 -119 q 145 -132 122 -128 q 193 -136 168 -136 q 279 -112 246 -136 q 339 -32 313 -87 l 371 36 l 13 722 l 228 722 l 465 214 l 685 722 l 890 722 l 517 -54 q 434 -192 475 -142 q 344 -263 393 -242 q 225 -285 294 -285 q 144 -278 181 -285 q 65 -256 108 -271 l 96 -119 m 525 1031 l 750 1031 l 506 818 l 324 818 l 525 1031 z "},"þ":{"ha":1026,"x_min":106,"x_max":957,"o":"m 106 992 l 300 992 l 300 611 q 427 710 349 675 q 599 744 506 744 q 788 697 707 744 q 913 566 868 650 q 957 368 957 482 q 910 166 957 254 q 779 28 864 78 q 579 -22 694 -22 q 300 101 396 -22 l 300 -269 l 106 -269 l 106 992 m 758 364 q 699 535 758 475 q 533 596 640 596 q 413 567 467 596 q 329 491 360 539 q 299 383 299 443 l 299 344 q 360 188 299 249 q 525 126 422 126 q 699 188 640 126 q 758 364 758 249 z "},"ÿ":{"ha":903,"x_min":13,"x_max":890,"o":"m 96 -119 q 145 -132 122 -128 q 193 -136 168 -136 q 279 -112 246 -136 q 339 -32 313 -87 l 371 36 l 13 722 l 228 722 l 465 214 l 685 722 l 890 722 l 517 -54 q 434 -192 475 -142 q 344 -263 393 -242 q 225 -285 294 -285 q 144 -278 181 -285 q 65 -256 108 -271 l 96 -119 m 200 999 l 379 999 l 379 842 l 200 842 l 200 999 m 535 999 l 714 999 l 714 842 l 535 842 l 535 999 z "},"Œ":{"ha":1836,"x_min":75,"x_max":1774,"o":"m 75 496 q 107 690 75 596 q 203 857 139 783 q 367 974 268 931 q 601 1017 467 1017 q 968 863 843 1017 l 968 992 l 1743 992 l 1743 831 l 1161 831 l 1161 589 l 1713 589 l 1713 428 l 1161 428 l 1161 161 l 1774 161 l 1749 0 l 968 0 l 968 132 q 601 -25 843 -25 q 324 38 443 -25 q 140 219 206 101 q 75 496 75 336 m 289 496 q 378 239 289 331 q 632 147 468 147 q 878 237 789 147 q 968 496 968 326 q 878 755 968 665 q 632 844 789 844 q 472 815 538 844 q 365 735 406 785 q 307 623 325 685 q 289 496 289 561 z "},"œ":{"ha":1600,"x_min":69,"x_max":1531,"o":"m 69 360 q 123 564 69 478 q 274 697 176 650 q 506 744 372 744 q 822 607 717 744 q 1136 744 928 744 q 1426 647 1322 744 q 1531 375 1531 550 l 1531 315 l 911 315 q 980 163 921 213 q 1139 113 1039 113 q 1339 214 1301 113 l 1521 214 q 1132 -22 1463 -22 q 944 13 1025 -22 q 814 114 863 47 q 680 13 761 49 q 496 -22 599 -22 q 183 78 296 -22 q 69 360 69 179 m 268 363 q 328 188 268 249 q 500 126 389 126 q 667 188 608 126 q 726 361 726 250 q 667 535 726 474 q 501 596 608 596 q 329 535 390 596 q 268 363 268 474 m 1347 431 q 1288 565 1343 519 q 1135 611 1233 611 q 1017 586 1063 611 q 948 520 972 561 q 915 431 924 479 l 1347 431 z "},"Ÿ":{"ha":1083,"x_min":19,"x_max":1065,"o":"m 439 401 l 19 992 l 250 992 l 546 563 l 840 992 l 1065 992 l 644 401 l 644 0 l 439 0 l 439 401 m 278 1256 l 467 1256 l 467 1085 l 278 1085 l 278 1256 m 625 1256 l 814 1256 l 814 1085 l 625 1085 l 625 1256 z "},"ʼ":{"ha":346,"x_min":46,"x_max":296,"o":"m 101 992 l 296 992 l 197 643 l 46 643 l 101 992 z "},"˜":{"ha":996,"x_min":213,"x_max":781,"o":"m 335 824 l 213 824 q 252 981 213 931 q 372 1031 292 1031 q 446 1018 411 1031 q 524 974 481 1006 q 572 944 554 951 q 606 936 589 936 q 660 1026 660 936 l 781 1026 q 741 869 781 919 q 621 819 701 819 q 549 833 583 819 q 469 876 514 846 q 422 907 439 900 q 388 914 406 914 q 335 824 335 914 z "},"–":{"ha":847,"x_min":0,"x_max":847,"o":"m 0 493 l 847 493 l 847 328 l 0 328 l 0 493 z "},"—":{"ha":1694,"x_min":0,"x_max":1694,"o":"m 0 493 l 1694 493 l 1694 328 l 0 328 l 0 493 z "},"‘":{"ha":346,"x_min":50,"x_max":300,"o":"m 244 643 l 50 643 l 149 992 l 300 992 l 244 643 z "},"’":{"ha":346,"x_min":46,"x_max":296,"o":"m 101 992 l 296 992 l 197 643 l 46 643 l 101 992 z "},"“":{"ha":629,"x_min":50,"x_max":583,"o":"m 244 643 l 50 643 l 149 992 l 300 992 l 244 643 m 528 643 l 333 643 l 432 992 l 583 992 l 528 643 z "},"”":{"ha":629,"x_min":46,"x_max":579,"o":"m 101 992 l 296 992 l 197 643 l 46 643 l 101 992 m 385 992 l 579 992 l 481 643 l 329 643 l 385 992 z "},"„":{"ha":629,"x_min":46,"x_max":579,"o":"m 101 211 l 296 211 l 197 -137 l 46 -137 l 101 211 m 385 211 l 579 211 l 481 -137 l 329 -137 l 385 211 z "},"•":{"ha":574,"x_min":60,"x_max":514,"o":"m 60 411 q 122 562 60 504 q 286 619 185 619 q 451 562 389 619 q 514 411 514 504 q 451 260 514 318 q 286 201 389 201 q 122 260 185 201 q 60 411 60 318 z "},"…":{"ha":1694,"x_min":183,"x_max":1511,"o":"m 183 211 l 382 211 l 382 0 l 183 0 l 183 211 m 747 211 l 946 211 l 946 0 l 747 0 l 747 211 m 1313 211 l 1511 211 l 1511 0 l 1313 0 l 1313 211 z "},"‹":{"ha":538,"x_min":51,"x_max":481,"o":"m 481 43 l 278 43 l 51 356 l 278 668 l 478 668 l 268 358 l 481 43 z "},"›":{"ha":538,"x_min":57,"x_max":486,"o":"m 268 354 l 57 668 l 260 668 l 486 357 l 260 43 l 60 43 l 268 354 z "},"€":{"ha":972,"x_min":24,"x_max":956,"o":"m 138 479 q 139 531 138 506 l 24 531 l 49 636 l 151 636 q 287 891 183 796 q 568 986 390 986 q 816 922 725 986 q 942 721 907 858 l 761 697 q 692 802 739 771 q 563 833 646 833 q 414 779 467 833 q 340 636 361 725 l 724 636 l 699 531 l 326 531 q 325 479 325 506 q 326 428 325 453 l 681 428 l 656 322 l 338 322 q 410 178 357 229 q 564 128 463 128 q 703 163 654 128 q 769 276 753 199 l 956 276 q 833 52 933 129 q 560 -25 732 -25 q 280 64 381 -25 q 150 322 179 153 l 24 322 l 49 428 l 139 428 q 138 479 138 453 z "},"™":{"ha":1528,"x_min":17,"x_max":1417,"o":"m 683 992 l 844 992 l 1051 578 l 1257 992 l 1417 992 l 1417 436 l 1289 436 l 1289 818 l 1100 436 l 996 436 l 808 818 l 808 436 l 683 436 l 683 992 m 235 878 l 17 878 l 17 992 l 590 992 l 590 878 l 372 878 l 372 436 l 235 436 l 235 878 z "}}}
